<?xml version="1.0" encoding="UTF-8" standalone="no"?>
<!-- Created with Inkscape (http://www.inkscape.org/) -->

<svg
   width="1920"
   height="1080"
   viewBox="0 0 508.00001 285.74999"
   version="1.1"
   id="svg1"
   inkscape:export-filename="bitmapa.png"
   inkscape:export-xdpi="96"
   inkscape:export-ydpi="96"
   xml:space="preserve"
   inkscape:version="1.4 (86a8ad7, 2024-10-11)"
   sodipodi:docname="noimage.svg"
   xmlns:inkscape="http://www.inkscape.org/namespaces/inkscape"
   xmlns:sodipodi="http://sodipodi.sourceforge.net/DTD/sodipodi-0.dtd"
   xmlns="http://www.w3.org/2000/svg"
   xmlns:svg="http://www.w3.org/2000/svg"><sodipodi:namedview
     id="namedview1"
     pagecolor="#e7e7e7"
     bordercolor="#eeeeee"
     borderopacity="1"
     inkscape:showpageshadow="0"
     inkscape:pageopacity="0"
     inkscape:pagecheckerboard="0"
     inkscape:deskcolor="#b0b0b0"
     inkscape:document-units="mm"
     showguides="true"
     inkscape:zoom="1.0093364"
     inkscape:cx="685.59896"
     inkscape:cy="901.08707"
     inkscape:window-width="2560"
     inkscape:window-height="1351"
     inkscape:window-x="1341"
     inkscape:window-y="381"
     inkscape:window-maximized="1"
     inkscape:current-layer="layer1"><inkscape:page
       x="0"
       y="0"
       width="508"
       height="285.75"
       id="page2"
       margin="0"
       bleed="0" /></sodipodi:namedview><defs
     id="defs1"><rect
       x="0"
       y="0"
       width="1575.8056"
       height="299.93357"
       id="rect2" /><rect
       x="25.220375"
       y="23.819244"
       width="865.19904"
       height="180.74603"
       id="rect1" /><rect
       x="0"
       y="0"
       width="1575.8056"
       height="299.93357"
       id="rect3" /></defs><g
     inkscape:label="Warstwa 1"
     inkscape:groupmode="layer"
     id="layer1"><rect
       style="fill:#000000;fill-opacity:1;stroke-width:0.264583"
       id="rect4"
       width="508"
       height="285.75"
       x="0"
       y="0" /><g
       id="g4"
       transform="matrix(1.5787337,0,0,1.5787337,-146.99836,-61.607255)"><text
         xml:space="preserve"
         transform="matrix(0.56200429,0,0,0.56200429,112.08713,136.82305)"
         id="text1"
         style="font-style:normal;font-variant:normal;font-weight:300;font-stretch:normal;font-size:82.392px;font-family:'Lettera Mono LL Cond Light';-inkscape-font-specification:'Lettera Mono LL Cond Light,  Light';text-align:start;writing-mode:lr-tb;direction:ltr;white-space:pre;shape-inside:url(#rect2);display:inline;fill:#ff0000"
         x="558.24042"
         y="0"><tspan
           x="0"
           y="75.101695"
           id="tspan4"><tspan
             style="font-weight:normal;font-family:'NType 82';-inkscape-font-specification:'NType 82, ';fill:#7137c8"
             id="tspan1">No preview yet</tspan></tspan></text><text
         xml:space="preserve"
         transform="matrix(0.22952766,0,0,0.2774625,112.36018,188.33054)"
         id="text3"
         style="font-style:normal;font-variant:normal;font-weight:300;font-stretch:normal;font-size:59.2903px;font-family:'Lettera Mono LL Cond Light';-inkscape-font-specification:'Lettera Mono LL Cond Light,  Light';text-align:start;writing-mode:lr-tb;direction:ltr;white-space:pre;shape-inside:url(#rect3);display:inline;fill:#ff0000"
         x="998.10675"
         y="0"><tspan
           x="0"
           y="54.044106"
           id="tspan6"><tspan
             style="font-weight:normal;font-family:'NType 82 Mono';-inkscape-font-specification:'NType 82 Mono';fill:#ffffff"
             id="tspan5">I'll add some later</tspan></tspan></text></g><g
       style="fill:#000000"
       id="g5"
       transform="matrix(2.6543772,0,0,2.6543772,175.31745,25.698833)"><g
         id="g2">
	<path
   d="m 14,24.138 c 3.071,0 5.569,-2.498 5.569,-5.568 C 19.569,15.498 17.071,13 14,13 c -3.071,0 -5.569,2.498 -5.569,5.569 0,3.071 2.498,5.569 5.569,5.569 z"
   id="path1"
   style="fill:#ffffff" />
	<path
   id="path2"
   style="fill:#ffffff"
   d="M 1.0000962 -5.395667e-05 L 1.0000962 40.000075 L 1.0000962 47.121805 C 1.6667712 46.455091 2.3334051 45.788334 3.0000832 45.121623 L 3.0000832 42.000062 L 6.1216437 42.000062 C 11.503611 36.617903 16.885664 31.235808 22.267747 25.853764 L 21.723995 25.310012 C 21.349995 24.937012 20.751952 24.918014 20.355952 25.266014 L 3.6209299 40.000075 L 3.0000832 40.000075 L 3.0000832 1.999933 L 46.121189 1.999933 C 46.787849 1.3332694 47.454518 0.66661139 48.121176 -5.395667e-05 L 1.0000962 -5.395667e-05 z M 50.999966 4.8775548 C 50.333325 5.544238 49.666622 6.2108599 48.999979 6.8775418 L 48.999979 29.64309 L 37.675999 19.261964 C 37.479999 19.082964 37.222058 18.99392 36.956058 18.99992 C 36.924913 19.00133 36.895002 19.009084 36.864362 19.013353 C 35.645337 20.232418 34.426257 21.451429 33.207226 22.670489 L 27.898977 28.483943 L 31.706993 32.291958 C 32.097993 32.682958 32.097993 33.314947 31.706993 33.705947 C 31.511993 33.901947 31.256096 33.99992 31.000096 33.99992 C 30.744096 33.99992 30.488004 33.901921 30.293004 33.706921 L 26.467078 30.053094 L 26.145849 29.731866 C 22.056501 33.82125 17.96725 37.910733 13.877848 42.000062 L 48.999979 42.000062 L 48.999979 50.00001 L 5.8780943 50.00001 C 5.2114202 50.666661 4.5447828 51.333348 3.8781073 51.999997 L 50.999966 51.999997 L 50.999966 40.000075 L 50.999966 4.8775548 z " />
</g></g><path
       id="rect5"
       style="fill:#7137c8;stroke-width:0.264583"
       d="M 165.95262,166.53788 316.1565,16.333999 322.7099,22.887401 172.50602,173.09128 Z" /></g></svg>
