<?xml version="1.0" encoding="UTF-8" standalone="no"?>
<!-- Created with Inkscape (http://www.inkscape.org/) -->

<svg
   width="2910.6003"
   height="540"
   viewBox="0 0 770.09636 142.875"
   version="1.1"
   id="svg1"
   xml:space="preserve"
   inkscape:version="1.4 (86a8ad7, 2024-10-11)"
   sodipodi:docname="projectsGrid_MSW.svg"
   xmlns:inkscape="http://www.inkscape.org/namespaces/inkscape"
   xmlns:sodipodi="http://sodipodi.sourceforge.net/DTD/sodipodi-0.dtd"
   xmlns="http://www.w3.org/2000/svg"
   xmlns:svg="http://www.w3.org/2000/svg"><sodipodi:namedview
     id="namedview1"
     pagecolor="#2c2c2c"
     bordercolor="#eeeeee"
     borderopacity="1"
     inkscape:showpageshadow="0"
     inkscape:pageopacity="0"
     inkscape:pagecheckerboard="0"
     inkscape:deskcolor="#505050"
     inkscape:document-units="mm"
     showguides="true"
     inkscape:zoom="0.50466821"
     inkscape:cx="1236.4559"
     inkscape:cy="430.97622"
     inkscape:window-width="2560"
     inkscape:window-height="1351"
     inkscape:window-x="1341"
     inkscape:window-y="381"
     inkscape:window-maximized="1"
     inkscape:current-layer="layer1"><sodipodi:guide
       position="271.49866,83.217284"
       orientation="1,0"
       id="guide9"
       inkscape:locked="false" /></sodipodi:namedview><defs
     id="defs1"><rect
       x="0"
       y="0"
       width="1575.8055"
       height="299.93356"
       id="rect2" /><rect
       x="25.220375"
       y="23.819244"
       width="865.19904"
       height="180.74603"
       id="rect1" /><rect
       x="0"
       y="0"
       width="1575.8055"
       height="299.93356"
       id="rect3" /></defs><g
     inkscape:label="Warstwa 1"
     inkscape:groupmode="layer"
     id="layer1"><g
       id="g1"
       transform="scale(0.50000001)"
       inkscape:label="Image"><rect
         style="fill:#000000;fill-opacity:1;stroke-width:0.264583"
         id="rect4"
         width="508"
         height="285.75"
         x="0"
         y="0" /><g
         id="g4"
         transform="matrix(1.5787337,0,0,1.5787337,-146.99836,-61.607255)"><text
           xml:space="preserve"
           transform="matrix(0.56200429,0,0,0.56200429,112.08713,136.82305)"
           id="text1"
           style="font-style:normal;font-variant:normal;font-weight:300;font-stretch:normal;font-size:82.392px;font-family:'Lettera Mono LL Cond Light';-inkscape-font-specification:'Lettera Mono LL Cond Light,  Light';text-align:start;writing-mode:lr-tb;direction:ltr;white-space:pre;shape-inside:url(#rect2);display:inline;fill:#ff0000"
           x="558.24042"
           y="0"><tspan
             x="0"
             y="75.101695"
             id="tspan11"><tspan
               style="font-weight:normal;font-family:'NType 82';-inkscape-font-specification:'NType 82, ';fill:#7137c8"
               id="tspan10">No preview yet</tspan></tspan></text><text
           xml:space="preserve"
           transform="matrix(0.22952766,0,0,0.2774625,112.36018,188.33054)"
           id="text3"
           style="font-style:normal;font-variant:normal;font-weight:300;font-stretch:normal;font-size:59.2903px;font-family:'Lettera Mono LL Cond Light';-inkscape-font-specification:'Lettera Mono LL Cond Light,  Light';text-align:start;writing-mode:lr-tb;direction:ltr;white-space:pre;shape-inside:url(#rect3);display:inline;fill:#ff0000"
           x="998.10675"
           y="0"><tspan
             x="0"
             y="54.044106"
             id="tspan13"><tspan
               style="font-weight:normal;font-family:'NType 82 Mono';-inkscape-font-specification:'NType 82 Mono';fill:#ffffff"
               id="tspan12">I'll add some later</tspan></tspan></text></g><g
         style="fill:#000000"
         id="g5"
         transform="matrix(2.6543772,0,0,2.6543772,175.31745,25.698833)"><g
           id="g2">
	<path
   d="m 14,24.138 c 3.071,0 5.569,-2.498 5.569,-5.568 C 19.569,15.498 17.071,13 14,13 c -3.071,0 -5.569,2.498 -5.569,5.569 0,3.071 2.498,5.569 5.569,5.569 z"
   id="path1"
   style="fill:#ffffff" />
	<path
   id="path2"
   style="fill:#ffffff"
   d="M 1.0000962,-5.395667e-5 V 40.000075 v 7.12173 c 0.666675,-0.666714 1.3333089,-1.333471 1.999987,-2.000182 V 42.000062 H 6.1216437 C 11.503611,36.617903 16.885664,31.235808 22.267747,25.853764 l -0.543752,-0.543752 c -0.374,-0.373 -0.972043,-0.391998 -1.368043,-0.044 L 3.6209299,40.000075 H 3.0000832 V 1.999933 H 46.121189 C 46.787849,1.3332694 47.454518,0.66661139 48.121176,-5.395667e-5 Z M 50.999966,4.8775548 C 50.333325,5.544238 49.666622,6.2108599 48.999979,6.8775418 V 29.64309 L 37.675999,19.261964 c -0.196,-0.179 -0.453941,-0.268044 -0.719941,-0.262044 -0.03115,0.0014 -0.06106,0.0092 -0.0917,0.01343 -1.219025,1.219065 -2.438105,2.438076 -3.657136,3.657136 l -5.308249,5.813454 3.808016,3.808015 c 0.391,0.391 0.391,1.022989 0,1.413989 -0.195,0.196 -0.450897,0.293973 -0.706897,0.293973 -0.256,0 -0.512092,-0.098 -0.707092,-0.292999 L 26.467078,30.053094 26.145849,29.731866 C 22.056501,33.82125 17.96725,37.910733 13.877848,42.000062 H 48.999979 V 50.00001 H 5.8780943 c -0.6666741,0.666651 -1.3333115,1.333338 -1.999987,1.999987 H 50.999966 V 40.000075 Z" />
</g></g><path
         id="rect5"
         style="fill:#7137c8;stroke-width:0.264583"
         d="M 165.95262,166.53788 316.1565,16.333999 322.7099,22.887401 172.50602,173.09128 Z" /></g><text
       xml:space="preserve"
       style="font-size:41.8912px;font-family:'NType 82';-inkscape-font-specification:'NType 82, ';text-align:start;writing-mode:lr-tb;direction:ltr;text-anchor:start;fill:#7137c8;fill-opacity:1;stroke-width:0.285621"
       x="271.00745"
       y="42.633987"
       id="text2"><tspan
         sodipodi:role="line"
         id="tspan2"
         style="font-style:normal;font-variant:normal;font-weight:normal;font-stretch:normal;font-family:'NType 82';-inkscape-font-specification:'NType 82, ';fill:#ccaaff;fill-opacity:1;stroke-width:0.285621"
         x="271.00745"
         y="42.633987">My Summer Work</tspan></text><text
       xml:space="preserve"
       style="font-size:14.1111px;font-family:'NType 82';-inkscape-font-specification:'NType 82, ';text-align:start;writing-mode:lr-tb;direction:ltr;text-anchor:start;fill:#7137c8;fill-opacity:1;stroke-width:0.264583"
       x="271.24466"
       y="70.269264"
       id="text4"><tspan
         sodipodi:role="line"
         id="tspan3"
         style="font-size:14.1111px;fill:#cccccc;fill-opacity:1;stroke-width:0.264583"
         x="271.24466"
         y="70.269264">My first more ambitious Unreal Engine project. It is a simple horror game taking place</tspan><tspan
         sodipodi:role="line"
         style="font-size:14.1111px;fill:#cccccc;fill-opacity:1;stroke-width:0.264583"
         x="271.24466"
         y="87.908142"
         id="tspan7">in a fire lookout tower in an Oregon forest. The game is in a super early development</tspan><tspan
         sodipodi:role="line"
         style="font-size:14.1111px;fill:#cccccc;fill-opacity:1;stroke-width:0.264583"
         x="271.24466"
         y="105.54701"
         id="tspan8">phase so I don't even have any images to show off. I'm working on it in my free time so</tspan><tspan
         sodipodi:role="line"
         style="font-size:14.1111px;fill:#cccccc;fill-opacity:1;stroke-width:0.264583"
         x="271.24466"
         y="123.18589"
         id="tspan9">it will be done in like a year or two.</tspan></text></g></svg>
