<?xml version="1.0" encoding="UTF-8" standalone="no"?>
<!-- Created with Inkscape (http://www.inkscape.org/) -->

<svg
   width="1024"
   height="1023.9999"
   viewBox="0 0 270.93332 270.93333"
   version="1.1"
   id="svg1"
   xml:space="preserve"
   xmlns="http://www.w3.org/2000/svg"
   xmlns:svg="http://www.w3.org/2000/svg"><defs
     id="defs1" /><path
     style="fill:#ffffff;fill-opacity:1;stroke-width:3.20256"
     d="m 131.65361,270.02724 c -0.93207,-0.50606 -16.47209,-15.6513 -34.533353,-33.65611 -22.074965,-22.00588 -33.12878,-33.6148 -33.723623,-35.41716 -1.939052,-5.87503 3.934405,-12.20447 10.009302,-10.78641 1.547699,0.36128 12.292019,10.47111 32.191904,30.29084 l 29.86883,29.74858 29.86884,-29.74858 c 19.89985,-19.81973 30.64417,-29.92956 32.1919,-30.29084 6.0749,-1.41806 11.94832,4.91138 10.0093,10.78641 -0.59468,1.80185 -11.65496,13.42079 -33.72362,35.42703 -18.06126,18.01021 -33.67155,33.16705 -34.68951,33.68189 -2.32019,1.17342 -5.26904,1.15936 -7.46997,-0.0356 z M 67.859332,79.917474 C 64.170564,78.314771 62.132361,73.724797 63.40163,69.87885 64.618858,66.190565 129.85858,1.0358652 133.13646,0.23485787 c 1.28163,-0.31317798 3.37879,-0.31314596 4.66039,1.0889e-4 1.54133,0.37671349 13.46541,11.66728724 35.22133,33.35007124 18.09016,18.0293 33.28513,33.494009 33.76664,34.366021 1.30206,2.357997 1.05982,7.069105 -0.48468,9.426311 -1.64182,2.505702 -5.93165,3.797553 -9.39707,2.829852 -1.72963,-0.482987 -11.91783,-10.085679 -31.98719,-30.1489 L 135.46667,20.618139 106.02151,50.01926 C 80.442304,75.560198 74.006703,81.31988 71.225283,81.160921 c -0.319295,-0.01825 -1.83388,-0.577792 -3.365951,-1.243447 z"
     id="path3" /></svg>
