<?xml version="1.0" encoding="UTF-8" standalone="no"?>
<!-- Created with Inkscape (http://www.inkscape.org/) -->

<svg
   width="1024"
   height="1024"
   viewBox="0 0 270.93332 270.93333"
   version="1.1"
   id="svg1"
   inkscape:version="1.4 (86a8ad7, 2024-10-11)"
   xml:space="preserve"
   sodipodi:docname="socialmedia.svg"
   xmlns:inkscape="http://www.inkscape.org/namespaces/inkscape"
   xmlns:sodipodi="http://sodipodi.sourceforge.net/DTD/sodipodi-0.dtd"
   xmlns:xlink="http://www.w3.org/1999/xlink"
   xmlns="http://www.w3.org/2000/svg"
   xmlns:svg="http://www.w3.org/2000/svg"><sodipodi:namedview
     id="namedview1"
     pagecolor="#292929"
     bordercolor="#eeeeee"
     borderopacity="1"
     inkscape:showpageshadow="false"
     inkscape:pageopacity="0"
     inkscape:pagecheckerboard="false"
     inkscape:deskcolor="#1a1a1a"
     inkscape:document-units="mm"
     showborder="true"
     borderlayer="true"
     labelstyle="default"
     inkscape:clip-to-page="false"
     showgrid="false"
     inkscape:zoom="0.5"
     inkscape:cx="436"
     inkscape:cy="763"
     inkscape:window-width="2560"
     inkscape:window-height="1351"
     inkscape:window-x="1341"
     inkscape:window-y="366"
     inkscape:window-maximized="1"
     inkscape:current-layer="layer4"
     showguides="true"><inkscape:grid
       id="grid1"
       units="mm"
       originx="0"
       originy="0"
       spacingx="0.99999995"
       spacingy="0.99999999"
       empcolor="#0099e5"
       empopacity="0.30196078"
       color="#0099e5"
       opacity="0.14901961"
       empspacing="5"
       enabled="true"
       visible="false" /></sodipodi:namedview><defs
     id="defs1"><linearGradient
       id="linearGradient16"
       inkscape:collect="always"><stop
         style="stop-color:#27f59a;stop-opacity:1;"
         offset="0"
         id="stop16" /><stop
         style="stop-color:#55dce4;stop-opacity:1;"
         offset="1"
         id="stop17" /></linearGradient><radialGradient
       id="f"
       cx="158.429"
       cy="578.088"
       r="52.3515"
       xlink:href="#a"
       gradientUnits="userSpaceOnUse"
       gradientTransform="matrix(0,-4.03418,4.28018,0,-2332.2273,942.2356)"
       fx="158.429"
       fy="578.088" /><linearGradient
       id="c"><stop
         offset="0"
         stop-color="#780cff"
         id="stop3" /><stop
         stop-color="#820bff"
         offset="1"
         stop-opacity="0"
         id="stop4" /></linearGradient><linearGradient
       id="a"><stop
         offset="0"
         stop-color="#fc0"
         id="stop7" /><stop
         offset=".1242"
         stop-color="#fc0"
         id="stop8" /><stop
         offset=".5672"
         stop-color="#fe4a05"
         id="stop9" /><stop
         offset=".6942"
         stop-color="#ff0f3f"
         id="stop10" /><stop
         offset="1"
         stop-color="#fe0657"
         stop-opacity="0"
         id="stop11" /></linearGradient><linearGradient
       inkscape:collect="always"
       xlink:href="#linearGradient16"
       id="linearGradient17"
       x1="157.69189"
       y1="12.912374"
       x2="86.783165"
       y2="284.90405"
       gradientUnits="userSpaceOnUse" /><linearGradient
       inkscape:collect="always"
       xlink:href="#linearGradient16"
       id="linearGradient19"
       x1="176.74167"
       y1="6.6145892"
       x2="112.7125"
       y2="248.97292"
       gradientUnits="userSpaceOnUse" /><linearGradient
       inkscape:collect="always"
       xlink:href="#linearGradient16"
       id="linearGradient21"
       x1="59.593906"
       y1="138.63586"
       x2="219.80609"
       y2="138.63586"
       gradientUnits="userSpaceOnUse" /></defs><rect
     style="fill:#ff4c44;fill-opacity:1;stroke:none;stroke-width:5.29167;stroke-miterlimit:4.9;stroke-dasharray:none;stroke-opacity:1;paint-order:normal"
     id="rect8"
     width="10"
     height="10"
     x="-155"
     y="-24.708334"
     inkscape:label="Color" /><g
     inkscape:groupmode="layer"
     id="layer3"
     inkscape:label="Layer 1"
     style="display:none"><path
       id="rect9"
       style="fill:#ff4c44;fill-opacity:0.2;stroke:#ff4c44;stroke-width:14.9964;stroke-miterlimit:4.9;stroke-dasharray:none;stroke-opacity:1;paint-order:normal"
       d="M 40.865206,7.4982503 7.4982503,40.865206 V 195.97512 H 31.707625 v 27.47067 H 7.4982503 v 39.98929 H 200.07564 l 63.35944,-63.35944 V 7.4982503 Z" /></g><g
     inkscape:groupmode="layer"
     id="layer4"
     inkscape:label="Layer 2"><path
       style="fill:url(#linearGradient19);fill-opacity:1;stroke:none;stroke-width:15.875;stroke-miterlimit:4.9;stroke-dasharray:none;stroke-opacity:1;paint-order:normal;opacity:0.4"
       d="M 16.933333,19.579166 233.89166,15.345833 259.82083,250.29583 40.216666,257.175 Z"
       id="path16" /><path
       id="path13"
       style="font-size:50.8px;line-height:1;font-family:'Kill The Noise';-inkscape-font-specification:'Kill The Noise';text-align:center;text-anchor:middle;fill:url(#linearGradient17);stroke-width:91.1818;stroke-miterlimit:4.9"
       d="M 3.9485962 0 C 1.1796295 3.5221531 -0.13271462 11.692009 0.010852051 24.509098 C 3.6668587 50.793917 4.6562364 65.947037 2.9796631 69.969373 C 12.27113 100.68451 15.670787 123.59826 13.178007 138.70988 C 21.296894 197.95859 25.17001 233.72455 24.79797 246.00824 C 29.48352 252.15037 32.913225 255.76915 35.087781 256.86442 L 33.186605 256.59726 L 30.487545 258.00027 C 29.490858 260.84492 27.198972 263.14176 23.611479 264.89081 L 24.172685 265.76879 C 24.596227 265.99849 31.429733 266.28109 41.202136 266.58838 C 42.440749 267.72979 43.580794 269.15944 44.602962 270.93333 L 45.671114 270.33234 C 45.74954 270.11923 45.759838 268.73648 45.733643 266.72325 C 65.111547 267.27883 96.930376 267.93806 144.76067 268.72985 C 166.30931 273.22688 184.04659 273.60963 197.97293 269.8781 C 223.40953 270.69607 242.95867 269.34932 256.62 265.83804 L 256.64067 263.63714 L 260.88588 262.34781 L 261.79487 263.90896 C 264.94433 264.82245 267.60524 267.16383 269.77733 270.93333 L 270.84497 270.33234 C 271.38597 268.86228 269.43778 224.56245 265.00036 137.43347 C 268.27364 113.33044 267.32867 93.787111 262.16488 78.803459 C 261.17835 50.800887 258.23431 29.417548 253.33337 14.653369 L 251.03687 14.692126 L 248.89644 9.3017578 L 247.2986 6.5339681 L 247.65465 6.5391357 C 247.2805 5.9540833 247.41339 5.5077696 248.05359 5.1996826 L 248.05256 5.1991659 C 245.44817 2.8704395 239.52686 1.3483487 230.67843 0.5374349 L 230.66551 0.31005859 C 230.43529 0.46324344 230.23449 0.47187265 230.03299 0.48214111 C 229.92405 0.47276214 229.81573 0.46287559 229.70588 0.45371908 C 229.49691 0.37572603 229.29549 0.25930699 229.12297 0 C 229.03682 0.10957324 228.96496 0.26435334 228.88164 0.38292236 C 227.90599 0.30814577 227.08072 0.19695265 226.03582 0.1390096 C 202.03 1.7167479 188.26867 1.670477 184.75203 0 C 156.38227 6.4364805 135.45947 8.0846296 121.98377 4.944401 C 67.804978 8.6319964 35.201187 9.9055908 24.171651 8.7653564 C 23.970292 8.8980629 23.823828 9.0085006 23.628015 9.1389771 L 21.428666 5.3283569 C 19.78512 6.3927015 18.254061 8.1852105 16.835148 10.70684 L 15.90859 11.32334 C 11.636016 6.6581486 8.2136529 3.8525029 5.6409993 2.9057658 L 5.4916545 0.31005859 C 4.8740411 0.72100893 4.3595095 0.61760833 3.9485962 0 z M 31.549495 27.384892 C 51.650918 27.880796 81.532846 28.458069 121.40499 29.118119 C 142.95363 33.615146 160.69091 33.997902 174.61725 30.26637 C 195.66746 30.943291 212.62042 30.113686 225.60638 27.825692 C 228.85137 51.876108 229.75174 66.136247 228.15403 69.969373 C 237.4455 100.68451 240.84464 123.59826 238.35186 138.70988 C 245.3903 190.0739 249.2264 223.72275 249.88346 239.79001 C 249.7082 239.77969 249.56878 239.76057 249.3915 239.75074 C 225.38568 241.32848 211.62435 241.28169 208.10771 239.61121 C 179.73795 246.04769 158.81515 247.69584 145.33945 244.55562 C 91.160654 248.24322 58.556865 249.51733 47.527332 248.37709 C 46.653198 248.95319 45.934446 249.46686 45.167786 249.99973 C 44.364814 229.2977 42.661437 193.09742 39.82651 137.43347 C 43.099783 113.33044 42.1543 93.787111 36.990507 78.803459 C 36.257867 58.007477 34.441017 40.879606 31.549495 27.384892 z " /><path
       d="m 139.70749,58.588393 c -21.75567,0 -24.48597,0.09503 -33.03077,0.483617 -8.528017,0.390219 -14.349111,1.739367 -19.442618,3.718953 -5.268665,2.044488 -9.738005,4.779428 -14.190569,9.230364 -4.455902,4.449388 -7.192961,8.915307 -9.245673,14.178435 -1.986019,5.091391 -3.337856,10.909797 -3.721639,19.428208 -0.382157,8.53837 -0.482316,11.26834 -0.482316,33.00788 0,21.73964 0.09682,24.45951 0.483944,32.99787 0.392253,8.52176 1.742378,14.33852 3.72164,19.42822 2.047745,5.26483 4.784721,9.73075 9.238995,14.18006 4.451018,4.45264 8.920275,7.19434 14.185602,9.23882 5.096765,1.97952 10.919647,3.32866 19.445954,3.71896 8.5448,0.38842 11.27339,0.48354 33.02743,0.48354 21.75738,0 24.47937,-0.095 33.02408,-0.48363 8.52811,-0.39021 14.35589,-1.73935 19.45264,-3.71895 5.26704,-2.0444 9.7297,-4.7861 14.18064,-9.23874 4.4559,-4.44931 7.19297,-8.91523 9.24567,-14.17836 1.96925,-5.0914 3.32108,-10.9098 3.72164,-19.42821 0.38379,-8.53837 0.48395,-11.26003 0.48395,-32.99958 0,-21.73963 -0.10016,-24.46781 -0.48395,-33.00625 -0.40056,-8.521752 -1.75239,-14.338447 -3.72164,-19.428129 -2.0527,-5.264837 -4.78977,-9.730836 -9.24567,-14.180144 -4.45599,-4.452645 -8.91198,-7.187586 -14.18561,-9.230446 -5.10685,-1.979504 -10.93128,-3.328652 -19.45931,-3.718871 -8.54479,-0.388588 -11.26508,-0.483617 -33.02742,-0.483617 z m -7.18628,14.425253 c 2.13291,-0.0033 4.51273,0 7.18628,0 21.38858,0 23.92359,0.07671 32.36986,0.460247 7.81047,0.356911 12.04943,1.660948 14.87322,2.756601 3.73833,1.450855 6.40356,3.185254 9.2056,5.986887 2.80375,2.801713 4.53936,5.469963 5.9947,9.205445 1.09647,2.818326 2.40319,7.054203 2.75863,14.858874 0.38388,8.43829 0.46735,10.97315 0.46735,32.33584 0,21.36259 -0.0834,23.89753 -0.46735,32.33582 -0.35714,7.8046 -1.66216,12.04048 -2.75863,14.8588 -1.45191,3.73556 -3.19095,6.3955 -5.9947,9.19543 -2.80366,2.80171 -5.46564,4.53603 -9.2056,5.98688 -2.82045,1.10071 -7.06275,2.4014 -14.87322,2.75832 -8.44456,0.38353 -10.98128,0.46691 -32.36986,0.46691 -21.39021,0 -23.92523,-0.0833 -32.36988,-0.46691 -7.810367,-0.36017 -12.049334,-1.66429 -14.874825,-2.75994 -3.738334,-1.45086 -6.408618,-3.18526 -9.212287,-5.98689 -2.803749,-2.80164 -4.539369,-5.46321 -5.994705,-9.20048 -1.096466,-2.81833 -2.40319,-7.05421 -2.758636,-14.85879 -0.383866,-8.43837 -0.460655,-10.97315 -0.460655,-32.34919 0,-21.37595 0.07679,-23.89754 0.460655,-32.33583 0.357157,-7.804673 1.66217,-12.040469 2.758636,-14.862133 1.451916,-3.735564 3.190956,-6.403814 5.994705,-9.205446 2.803669,-2.801714 5.473953,-4.53603 9.212287,-5.990225 2.823781,-1.100703 7.064458,-2.401399 14.874825,-2.760022 7.38987,-0.33354 10.25372,-0.433538 25.18368,-0.450312 z m 49.94674,13.291162 c -5.3071,0 -9.61293,4.297602 -9.61293,9.60234 0,5.303192 4.30583,9.605762 9.61293,9.605762 5.30702,0 9.61285,-4.30257 9.61285,-9.605762 0,-5.303111 -4.30583,-9.605598 -9.61293,-9.605598 z m -42.76046,11.223306 c -22.71868,0 -41.138197,18.405916 -41.138197,41.107736 0,22.70183 18.419517,41.09936 41.138197,41.09936 22.71867,0 41.1316,-18.39753 41.1316,-41.09936 0,-22.70182 -18.41455,-41.107736 -41.13323,-41.107736 z m 0,14.425256 c 14.74634,0 26.70235,11.94544 26.70235,26.68248 0,14.73543 -11.95601,26.68248 -26.70235,26.68248 -14.74797,0 -26.70228,-11.94705 -26.70228,-26.68248 0,-14.73704 11.95431,-26.68248 26.70228,-26.68248 z"
       inkscape:connector-curvature="0"
       fill="#ffffff"
       id="path15"
       style="display:inline;fill:url(#linearGradient21);fill-opacity:1;stroke-width:0.814314" /></g></svg>
