<?xml version="1.0" encoding="UTF-8" standalone="no"?>
<!-- Created with Inkscape (http://www.inkscape.org/) -->

<svg
   width="1024"
   height="1024"
   viewBox="0 0 270.93332 270.93333"
   version="1.1"
   id="svg1"
   inkscape:version="1.4 (86a8ad7, 2024-10-11)"
   xml:space="preserve"
   sodipodi:docname="socialmedia.svg"
   xmlns:inkscape="http://www.inkscape.org/namespaces/inkscape"
   xmlns:sodipodi="http://sodipodi.sourceforge.net/DTD/sodipodi-0.dtd"
   xmlns:xlink="http://www.w3.org/1999/xlink"
   xmlns="http://www.w3.org/2000/svg"
   xmlns:svg="http://www.w3.org/2000/svg"><sodipodi:namedview
     id="namedview1"
     pagecolor="#292929"
     bordercolor="#eeeeee"
     borderopacity="1"
     inkscape:showpageshadow="false"
     inkscape:pageopacity="0"
     inkscape:pagecheckerboard="false"
     inkscape:deskcolor="#1a1a1a"
     inkscape:document-units="mm"
     showborder="true"
     borderlayer="true"
     labelstyle="default"
     inkscape:clip-to-page="false"
     showgrid="false"
     inkscape:zoom="0.70710678"
     inkscape:cx="466.69047"
     inkscape:cy="641.34585"
     inkscape:window-width="2560"
     inkscape:window-height="1351"
     inkscape:window-x="1341"
     inkscape:window-y="366"
     inkscape:window-maximized="1"
     inkscape:current-layer="layer4"
     showguides="true"><inkscape:grid
       id="grid1"
       units="mm"
       originx="0"
       originy="0"
       spacingx="0.99999995"
       spacingy="0.99999999"
       empcolor="#0099e5"
       empopacity="0.30196078"
       color="#0099e5"
       opacity="0.14901961"
       empspacing="5"
       enabled="true"
       visible="false" /></sodipodi:namedview><defs
     id="defs1"><linearGradient
       id="linearGradient16"
       inkscape:collect="always"><stop
         style="stop-color:#27f59a;stop-opacity:1;"
         offset="0"
         id="stop16" /><stop
         style="stop-color:#55dce4;stop-opacity:1;"
         offset="1"
         id="stop17" /></linearGradient><radialGradient
       id="f"
       cx="158.429"
       cy="578.088"
       r="52.3515"
       xlink:href="#a"
       gradientUnits="userSpaceOnUse"
       gradientTransform="matrix(0,-4.03418,4.28018,0,-2332.2273,942.2356)"
       fx="158.429"
       fy="578.088" /><linearGradient
       id="c"><stop
         offset="0"
         stop-color="#780cff"
         id="stop3" /><stop
         stop-color="#820bff"
         offset="1"
         stop-opacity="0"
         id="stop4" /></linearGradient><linearGradient
       id="a"><stop
         offset="0"
         stop-color="#fc0"
         id="stop7" /><stop
         offset=".1242"
         stop-color="#fc0"
         id="stop8" /><stop
         offset=".5672"
         stop-color="#fe4a05"
         id="stop9" /><stop
         offset=".6942"
         stop-color="#ff0f3f"
         id="stop10" /><stop
         offset="1"
         stop-color="#fe0657"
         stop-opacity="0"
         id="stop11" /></linearGradient><linearGradient
       inkscape:collect="always"
       xlink:href="#linearGradient16"
       id="linearGradient17"
       x1="157.69189"
       y1="12.912374"
       x2="86.783165"
       y2="284.90405"
       gradientUnits="userSpaceOnUse" /><linearGradient
       inkscape:collect="always"
       xlink:href="#linearGradient16"
       id="linearGradient19"
       x1="176.74167"
       y1="6.6145892"
       x2="112.7125"
       y2="248.97292"
       gradientUnits="userSpaceOnUse" /><linearGradient
       inkscape:collect="always"
       xlink:href="#linearGradient16"
       id="linearGradient21"
       x1="59.593906"
       y1="138.63586"
       x2="219.80609"
       y2="138.63586"
       gradientUnits="userSpaceOnUse" /></defs><rect
     style="fill:#ff4c44;fill-opacity:1;stroke:none;stroke-width:5.29167;stroke-miterlimit:4.9;stroke-dasharray:none;stroke-opacity:1;paint-order:normal"
     id="rect8"
     width="10"
     height="10"
     x="-155"
     y="-24.708334"
     inkscape:label="Color" /><g
     inkscape:groupmode="layer"
     id="layer3"
     inkscape:label="Layer 1"
     style="display:none"><path
       id="rect9"
       style="fill:#ff4c44;fill-opacity:0.2;stroke:#ff4c44;stroke-width:14.9964;stroke-miterlimit:4.9;stroke-dasharray:none;stroke-opacity:1;paint-order:normal"
       d="M 40.865206,7.4982503 7.4982503,40.865206 V 195.97512 H 31.707625 v 27.47067 H 7.4982503 v 39.98929 H 200.07564 l 63.35944,-63.35944 V 7.4982503 Z" /></g><g
     inkscape:groupmode="layer"
     id="layer4"
     inkscape:label="Layer 2"
     transform="matrix(0.90111244,0,0,0.90111244,13.395972,13.469295)"><path
       id="path21"
       style="font-size:50.8px;line-height:1;font-family:'Kill The Noise';-inkscape-font-specification:'Kill The Noise';text-align:center;text-anchor:middle;fill:#6b3d9f;fill-opacity:1;stroke:none;stroke-width:11.6169;stroke-linecap:butt;stroke-linejoin:miter;stroke-miterlimit:4.9;stroke-dasharray:none;stroke-opacity:1;paint-order:stroke markers fill"
       d="m -8.8949876,-13.301602 c -3.0393744,3.8661142 -4.4798774,12.83380876 -4.3222904,26.902569 4.0130394,28.851699 5.0990362,45.484618 3.2587348,49.899761 10.19883807,33.714667 13.9304933,58.866092 11.1942774,75.453462 8.9117478,65.03472 13.1630988,104.29346 12.7547268,117.77673 5.143124,6.74195 8.907762,10.71412 11.294677,11.91635 l -2.086838,-0.29325 -2.962641,1.54003 c -1.09402,3.12244 -3.609723,5.64358 -7.547557,7.56344 l 0.616011,0.96372 c 0.464903,0.25213 7.965745,0.56233 18.692486,0.89963 1.359571,1.25288 2.610949,2.82214 3.732938,4.76926 l 1.172464,-0.65968 c 0.08609,-0.23392 0.09739,-1.75171 0.06864,-3.96154 21.270281,0.60984 56.196422,1.33344 108.697649,2.20256 23.653,4.93619 43.12244,5.35632 58.40877,1.26038 27.92065,0.89785 49.3789,-0.58042 64.37435,-4.4346 l 0.0227,-2.41583 4.65979,-1.41524 0.99775,1.71361 c 3.45703,1.00269 6.37779,3.57273 8.762,7.71034 l 1.1719,-0.65968 c 0.59384,-1.61362 -1.54461,-50.23961 -6.41537,-145.87729 3.59294,-26.45685 2.5557,-47.908709 -3.11237,-64.355611 -1.0829,-30.737202 -4.31445,-54.208761 -9.694,-70.4147565 l -2.52076,0.042542 -2.34946,-5.9167722 -1.75388,-3.038082 0.39082,0.00567 c -0.41069,-0.6421865 -0.26482,-1.1320856 0.4379,-1.4702593 l -10e-4,-5.671e-4 c -2.85873,-2.5561409 -9.35829,-4.2268739 -19.07082,-5.1169789 l -0.0142,-0.249581 c -0.2527,0.168144 -0.47311,0.177616 -0.69429,0.188888 -0.11957,-0.0103 -0.23847,-0.02115 -0.35905,-0.0312 -0.22938,-0.08561 -0.45047,-0.213398 -0.63984,-0.498028 -0.0946,0.120274 -0.17344,0.290169 -0.26489,0.420317 -1.07093,-0.08208 -1.97679,-0.20413 -3.12374,-0.267732 -26.35014,1.731815 -41.45535,1.681025 -45.31541,-0.152585 -31.14025,7.0650442 -54.1063,8.8741456 -68.89798,5.4272536 -59.469702,4.0477126 -95.257461,5.4456817 -107.364102,4.1940961 -0.221023,0.1456661 -0.38179,0.2668888 -0.596726,0.4101072 L 10.292123,-7.4528967 C 8.4880741,-6.284612 6.8074974,-4.3170531 5.2500184,-1.5491703 L 4.2329761,-0.87246513 C -0.45684208,-5.9932423 -4.2134208,-9.0728773 -7.0373105,-10.112069 l -0.1639293,-2.849195 c -0.6779273,0.451082 -1.2427062,0.337584 -1.6937478,-0.340338 z M 21.401316,16.7576 c 22.064455,0.544332 54.864545,1.17798 98.630454,1.902488 23.65301,4.93619 43.12245,5.356325 58.40878,1.260385 23.1059,0.743027 41.71442,-0.167595 55.96855,-2.679026 3.56188,26.399093 4.55018,42.051826 2.79644,46.259281 10.19884,33.714667 13.92993,58.866092 11.19371,75.453462 7.72579,56.38004 11.93651,93.31492 12.65774,110.95125 -0.19238,-0.0113 -0.34541,-0.0323 -0.54,-0.0431 -26.35015,1.73182 -41.45536,1.68046 -45.31542,-0.15315 -31.14025,7.06504 -54.10629,8.87414 -68.89798,5.42726 -59.469704,4.04772 -95.257462,5.44625 -107.364099,4.19466 -0.959499,0.63236 -1.748442,1.19619 -2.589971,1.7811 C 35.468132,238.38849 33.59841,198.65302 30.486634,137.55313 34.079563,111.09628 33.041748,89.644421 27.373677,73.197519 26.56949,50.370677 24.575213,31.570159 21.401316,16.7576 Z" /><path
       style="opacity:0.4;fill:url(#linearGradient19);fill-opacity:1;stroke:none;stroke-width:15.875;stroke-miterlimit:4.9;stroke-dasharray:none;stroke-opacity:1;paint-order:normal"
       d="M 16.933333,19.579166 233.89166,15.345833 259.82083,250.29583 40.216666,257.175 Z"
       id="path16" /><path
       id="path13"
       style="font-size:50.8px;line-height:1;font-family:'Kill The Noise';-inkscape-font-specification:'Kill The Noise';text-align:center;text-anchor:middle;fill:url(#linearGradient17);stroke:none;stroke-width:10.5833;stroke-linecap:butt;stroke-linejoin:miter;stroke-miterlimit:4.9;stroke-dasharray:none;stroke-opacity:1;paint-order:stroke markers fill"
       d="M 3.9485962,0 C 1.1796295,3.5221531 -0.13271462,11.692009 0.01085205,24.509098 3.6668587,50.793917 4.6562364,65.947037 2.9796631,69.969373 12.27113,100.68451 15.670787,123.59826 13.178007,138.70988 c 8.118887,59.24871 11.992003,95.01467 11.619963,107.29836 4.68555,6.14213 8.115255,9.76091 10.289811,10.85618 l -1.901176,-0.26716 -2.69906,1.40301 c -0.996687,2.84465 -3.288573,5.14149 -6.876066,6.89054 l 0.561206,0.87798 c 0.423542,0.2297 7.257048,0.5123 17.029451,0.81959 1.238613,1.14141 2.378658,2.57106 3.400826,4.34495 l 1.068152,-0.60099 c 0.07843,-0.21311 0.08872,-1.59586 0.06253,-3.60909 19.377904,0.55558 51.196733,1.21481 99.027027,2.0066 21.54864,4.49703 39.28592,4.87978 53.21226,1.14825 25.4366,0.81797 44.98574,-0.52878 58.64707,-4.04006 l 0.0207,-2.2009 4.24521,-1.28933 0.90899,1.56115 c 3.14946,0.91349 5.81037,3.25487 7.98246,7.02437 l 1.06764,-0.60099 c 0.541,-1.47006 -1.40719,-45.76989 -5.84461,-132.89887 3.27328,-24.10303 2.32831,-43.646359 -2.83548,-58.630011 -0.98653,-28.002572 -3.93057,-49.385911 -8.83151,-64.15009 l -2.2965,0.03876 -2.14043,-5.3903682 -1.59784,-2.7677897 0.35605,0.00517 c -0.37415,-0.5850524 -0.24126,-1.0313661 0.39894,-1.3394531 l -0.001,-5.167e-4 c -2.60439,-2.3287264 -8.5257,-3.8508172 -17.37413,-4.661731 l -0.0129,-0.22737631 c -0.23022,0.15318485 -0.43102,0.16181406 -0.63252,0.17208252 -0.10894,-0.009379 -0.21726,-0.0192655 -0.32711,-0.028422 C 229.49691,0.37572603 229.29549,0.25930699 229.12297,0 229.03682,0.10957324 228.96496,0.26435334 228.88164,0.38292236 227.90599,0.30814577 227.08072,0.19695265 226.03582,0.1390096 202.03,1.7167479 188.26867,1.670477 184.75203,0 156.38227,6.4364805 135.45947,8.0846296 121.98377,4.944401 67.804978,8.6319964 35.201187,9.9055908 24.171651,8.7653564 23.970292,8.8980629 23.823828,9.0085006 23.628015,9.1389771 L 21.428666,5.3283569 C 19.78512,6.3927015 18.254061,8.1852105 16.835148,10.70684 l -0.926558,0.6165 C 11.636016,6.6581486 8.2136529,3.8525029 5.6409993,2.9057658 L 5.4916545,0.31005859 C 4.8740411,0.72100893 4.3595095,0.61760833 3.9485962,0 Z M 31.549495,27.384892 c 20.101423,0.495904 49.983351,1.073177 89.855495,1.733227 21.54864,4.497027 39.28592,4.879783 53.21226,1.148251 21.05021,0.676921 38.00317,-0.152684 50.98913,-2.440678 3.24499,24.050416 4.14536,38.310555 2.54765,42.143681 9.29147,30.715137 12.69061,53.628887 10.19783,68.740507 7.03844,51.36402 10.87454,85.01287 11.5316,101.08013 -0.17526,-0.0103 -0.31468,-0.0294 -0.49196,-0.0393 -24.00582,1.57774 -37.76715,1.53095 -41.28379,-0.13953 -28.36976,6.43648 -49.29256,8.08463 -62.76826,4.94441 -54.178796,3.6876 -86.782585,4.96171 -97.812118,3.82147 -0.874134,0.5761 -1.592886,1.08977 -2.359546,1.62264 C 44.364814,229.2977 42.661437,193.09742 39.82651,137.43347 43.099783,113.33044 42.1543,93.787111 36.990507,78.803459 36.257867,58.007477 34.441017,40.879606 31.549495,27.384892 Z" /><path
       d="m 139.70749,58.588393 c -21.75567,0 -24.48597,0.09503 -33.03077,0.483617 -8.528017,0.390219 -14.349111,1.739367 -19.442618,3.718953 -5.268665,2.044488 -9.738005,4.779428 -14.190569,9.230364 -4.455902,4.449388 -7.192961,8.915307 -9.245673,14.178435 -1.986019,5.091391 -3.337856,10.909797 -3.721639,19.428208 -0.382157,8.53837 -0.482316,11.26834 -0.482316,33.00788 0,21.73964 0.09682,24.45951 0.483944,32.99787 0.392253,8.52176 1.742378,14.33852 3.72164,19.42822 2.047745,5.26483 4.784721,9.73075 9.238995,14.18006 4.451018,4.45264 8.920275,7.19434 14.185602,9.23882 5.096765,1.97952 10.919647,3.32866 19.445954,3.71896 8.5448,0.38842 11.27339,0.48354 33.02743,0.48354 21.75738,0 24.47937,-0.095 33.02408,-0.48363 8.52811,-0.39021 14.35589,-1.73935 19.45264,-3.71895 5.26704,-2.0444 9.7297,-4.7861 14.18064,-9.23874 4.4559,-4.44931 7.19297,-8.91523 9.24567,-14.17836 1.96925,-5.0914 3.32108,-10.9098 3.72164,-19.42821 0.38379,-8.53837 0.48395,-11.26003 0.48395,-32.99958 0,-21.73963 -0.10016,-24.46781 -0.48395,-33.00625 -0.40056,-8.521752 -1.75239,-14.338447 -3.72164,-19.428129 -2.0527,-5.264837 -4.78977,-9.730836 -9.24567,-14.180144 -4.45599,-4.452645 -8.91198,-7.187586 -14.18561,-9.230446 -5.10685,-1.979504 -10.93128,-3.328652 -19.45931,-3.718871 -8.54479,-0.388588 -11.26508,-0.483617 -33.02742,-0.483617 z m -7.18628,14.425253 c 2.13291,-0.0033 4.51273,0 7.18628,0 21.38858,0 23.92359,0.07671 32.36986,0.460247 7.81047,0.356911 12.04943,1.660948 14.87322,2.756601 3.73833,1.450855 6.40356,3.185254 9.2056,5.986887 2.80375,2.801713 4.53936,5.469963 5.9947,9.205445 1.09647,2.818326 2.40319,7.054203 2.75863,14.858874 0.38388,8.43829 0.46735,10.97315 0.46735,32.33584 0,21.36259 -0.0834,23.89753 -0.46735,32.33582 -0.35714,7.8046 -1.66216,12.04048 -2.75863,14.8588 -1.45191,3.73556 -3.19095,6.3955 -5.9947,9.19543 -2.80366,2.80171 -5.46564,4.53603 -9.2056,5.98688 -2.82045,1.10071 -7.06275,2.4014 -14.87322,2.75832 -8.44456,0.38353 -10.98128,0.46691 -32.36986,0.46691 -21.39021,0 -23.92523,-0.0833 -32.36988,-0.46691 -7.810367,-0.36017 -12.049334,-1.66429 -14.874825,-2.75994 -3.738334,-1.45086 -6.408618,-3.18526 -9.212287,-5.98689 -2.803749,-2.80164 -4.539369,-5.46321 -5.994705,-9.20048 -1.096466,-2.81833 -2.40319,-7.05421 -2.758636,-14.85879 -0.383866,-8.43837 -0.460655,-10.97315 -0.460655,-32.34919 0,-21.37595 0.07679,-23.89754 0.460655,-32.33583 0.357157,-7.804673 1.66217,-12.040469 2.758636,-14.862133 1.451916,-3.735564 3.190956,-6.403814 5.994705,-9.205446 2.803669,-2.801714 5.473953,-4.53603 9.212287,-5.990225 2.823781,-1.100703 7.064458,-2.401399 14.874825,-2.760022 7.38987,-0.33354 10.25372,-0.433538 25.18368,-0.450312 z m 49.94674,13.291162 c -5.3071,0 -9.61293,4.297602 -9.61293,9.60234 0,5.303192 4.30583,9.605762 9.61293,9.605762 5.30702,0 9.61285,-4.30257 9.61285,-9.605762 0,-5.303111 -4.30583,-9.605598 -9.61293,-9.605598 z m -42.76046,11.223306 c -22.71868,0 -41.138197,18.405916 -41.138197,41.107736 0,22.70183 18.419517,41.09936 41.138197,41.09936 22.71867,0 41.1316,-18.39753 41.1316,-41.09936 0,-22.70182 -18.41455,-41.107736 -41.13323,-41.107736 z m 0,14.425256 c 14.74634,0 26.70235,11.94544 26.70235,26.68248 0,14.73543 -11.95601,26.68248 -26.70235,26.68248 -14.74797,0 -26.70228,-11.94705 -26.70228,-26.68248 0,-14.73704 11.95431,-26.68248 26.70228,-26.68248 z"
       inkscape:connector-curvature="0"
       fill="#ffffff"
       id="path15"
       style="display:inline;fill:url(#linearGradient21);fill-opacity:1;stroke-width:0.814314" /></g></svg>
