<?xml version="1.0" encoding="UTF-8" standalone="no"?>
<!-- Created with Inkscape (http://www.inkscape.org/) -->

<svg
   width="1024"
   height="1024"
   viewBox="0 0 270.93332 270.93333"
   version="1.1"
   id="svg1"
   inkscape:version="1.4 (86a8ad7, 2024-10-11)"
   xml:space="preserve"
   sodipodi:docname="socialmedia.svg"
   xmlns:inkscape="http://www.inkscape.org/namespaces/inkscape"
   xmlns:sodipodi="http://sodipodi.sourceforge.net/DTD/sodipodi-0.dtd"
   xmlns:xlink="http://www.w3.org/1999/xlink"
   xmlns="http://www.w3.org/2000/svg"
   xmlns:svg="http://www.w3.org/2000/svg"><sodipodi:namedview
     id="namedview1"
     pagecolor="#292929"
     bordercolor="#eeeeee"
     borderopacity="1"
     inkscape:showpageshadow="false"
     inkscape:pageopacity="0"
     inkscape:pagecheckerboard="false"
     inkscape:deskcolor="#1a1a1a"
     inkscape:document-units="mm"
     showborder="true"
     borderlayer="true"
     labelstyle="default"
     inkscape:clip-to-page="false"
     showgrid="false"
     inkscape:zoom="0.70710678"
     inkscape:cx="493.56053"
     inkscape:cy="587.60573"
     inkscape:window-width="2560"
     inkscape:window-height="1351"
     inkscape:window-x="1341"
     inkscape:window-y="366"
     inkscape:window-maximized="1"
     inkscape:current-layer="layer3"
     showguides="true"><inkscape:grid
       id="grid1"
       units="mm"
       originx="0"
       originy="0"
       spacingx="0.99999995"
       spacingy="0.99999999"
       empcolor="#0099e5"
       empopacity="0.30196078"
       color="#0099e5"
       opacity="0.14901961"
       empspacing="5"
       enabled="true"
       visible="false" /><sodipodi:guide
       position="34.050139,246.62783"
       orientation="0,1"
       id="guide9"
       inkscape:locked="false"
       inkscape:label=""
       inkscape:color="rgb(0,134,229)" /><sodipodi:guide
       position="60.242548,24.305493"
       orientation="0,-1"
       id="guide10"
       inkscape:locked="false" /><sodipodi:guide
       position="24.896127,89.642842"
       orientation="1,0"
       id="guide11"
       inkscape:locked="false" /><sodipodi:guide
       position="246.70924,55.407187"
       orientation="1,0"
       id="guide12"
       inkscape:locked="false" /></sodipodi:namedview><defs
     id="defs1"><radialGradient
       id="f"
       cx="158.429"
       cy="578.088"
       r="52.3515"
       xlink:href="#a"
       gradientUnits="userSpaceOnUse"
       gradientTransform="matrix(0,-4.03418,4.28018,0,-2332.2273,942.2356)"
       fx="158.429"
       fy="578.088" /><linearGradient
       id="c"><stop
         offset="0"
         stop-color="#780cff"
         id="stop3" /><stop
         stop-color="#820bff"
         offset="1"
         stop-opacity="0"
         id="stop4" /></linearGradient><linearGradient
       id="a"><stop
         offset="0"
         stop-color="#fc0"
         id="stop7" /><stop
         offset=".1242"
         stop-color="#fc0"
         id="stop8" /><stop
         offset=".5672"
         stop-color="#fe4a05"
         id="stop9" /><stop
         offset=".6942"
         stop-color="#ff0f3f"
         id="stop10" /><stop
         offset="1"
         stop-color="#fe0657"
         stop-opacity="0"
         id="stop11" /></linearGradient></defs><rect
     style="fill:#ff4c44;fill-opacity:1;stroke:none;stroke-width:5.29167;stroke-miterlimit:4.9;stroke-dasharray:none;stroke-opacity:1;paint-order:normal"
     id="rect8"
     width="10"
     height="10"
     x="-155"
     y="-24.708334"
     inkscape:label="Color" /><g
     inkscape:groupmode="layer"
     id="layer3"
     inkscape:label="Layer 1"><rect
       style="fill:#ff4c44;fill-opacity:0.2;stroke:#ff4c44;stroke-width:15.875;stroke-miterlimit:4.9;stroke-dasharray:none;stroke-opacity:1;paint-order:normal"
       id="rect9"
       width="270.93332"
       height="270.93332"
       x="0"
       y="0"
       ry="0" /><path
       d="m 135.47707,24.305496 c -30.2119,0 -34.00344,0.131967 -45.869517,0.671596 -11.842784,0.541892 -19.926482,2.415442 -26.999788,5.164475 -7.316547,2.839162 -13.523078,6.637148 -19.706312,12.818121 -6.187871,6.178824 -9.988798,12.380604 -12.83938,19.689461 -2.757967,7.070367 -4.635249,15.150333 -5.168207,26.979775 -0.530696,11.857146 -0.669787,15.648236 -0.669787,45.837736 0,30.18963 0.134456,33.96669 0.672049,45.82383 0.544718,11.83409 2.419624,19.91178 5.168207,26.97979 2.843684,7.31122 6.644498,13.513 12.830107,19.69171 6.181086,6.18335 12.387503,9.99072 19.699413,12.82988 7.07783,2.74893 15.164016,4.62247 27.004425,5.16448 11.86608,0.5394 15.65525,0.67149 45.86488,0.67149 30.21427,0 33.99428,-0.13198 45.86024,-0.67161 11.84291,-0.54189 19.93588,-2.41543 27.0137,-5.16447 7.31429,-2.83905 13.51154,-6.64642 19.69252,-12.82977 6.18786,-6.17871 9.9888,-12.38049 12.83937,-19.68935 2.73468,-7.07037 4.61196,-15.15033 5.16821,-26.97977 0.53296,-11.85715 0.67205,-15.6367 0.67205,-45.82621 0,-30.18962 -0.13909,-33.97822 -0.67205,-45.835476 -0.55625,-11.834077 -2.43353,-19.911668 -5.16821,-26.979661 -2.85057,-7.311231 -6.65151,-13.513123 -12.83937,-19.691835 -6.18799,-6.183347 -12.37598,-9.981334 -19.69942,-12.818234 -7.09185,-2.74892 -15.18018,-4.62247 -27.02297,-5.164362 -11.86608,-0.539629 -15.64371,-0.671596 -45.86488,-0.671596 z m -9.97952,20.032215 c 2.96196,-0.0046 6.26679,0 9.97952,0 29.70212,0 33.22248,0.106523 44.95173,0.639142 10.84632,0.49564 16.73293,2.306543 20.65429,3.828066 5.19139,2.01479 8.89258,4.423333 12.78374,8.313934 3.89355,3.890713 6.30378,7.596087 8.32479,12.783517 1.52266,3.913784 3.33729,9.796106 3.83089,20.634379 0.53308,11.718171 0.64899,15.238311 0.64899,44.904471 0,29.66605 -0.11591,33.18629 -0.64899,44.90447 -0.49597,10.83816 -2.30823,16.72049 -3.83089,20.63427 -2.01626,5.18754 -4.43124,8.88138 -8.32479,12.76961 -3.89342,3.89071 -7.59008,6.29914 -12.78374,8.31393 -3.91672,1.52853 -9.80797,3.3348 -20.65429,3.83044 -11.72688,0.53262 -15.24961,0.6484 -44.95173,0.6484 -29.70439,0 -33.22475,-0.11578 -44.95174,-0.6484 -10.846189,-0.50017 -16.732809,-2.31118 -20.656542,-3.8327 -5.191389,-2.01479 -8.899588,-4.42334 -12.793017,-8.31394 -3.893541,-3.8906 -6.30378,-7.5867 -8.324791,-12.77662 -1.522653,-3.91378 -3.337288,-9.79611 -3.830892,-20.63426 -0.533071,-11.71829 -0.639708,-15.23831 -0.639708,-44.92302 0,-29.68459 0.106637,-33.1863 0.639708,-44.90447 0.495979,-10.838273 2.308239,-16.720482 3.830892,-20.638901 2.016261,-5.187544 4.43125,-8.892917 8.324791,-12.783518 3.893429,-3.890714 7.601628,-6.299143 12.793017,-8.31857 3.921359,-1.528536 9.810353,-3.3348 20.656542,-3.832816 10.26223,-0.463185 14.23923,-0.602051 34.97233,-0.625346 z m 69.36058,18.457314 c -7.36992,0 -13.34939,5.96804 -13.34939,13.334681 0,7.364495 5.97947,13.339432 13.34939,13.339432 7.36981,0 13.34927,-5.974937 13.34927,-13.339432 0,-7.36438 -5.97946,-13.339204 -13.34938,-13.339204 z m -59.38106,15.585701 c -31.54921,0 -57.12823,25.560134 -57.12823,57.085934 0,31.52581 25.57902,57.0743 57.12823,57.0743 31.5492,0 57.11907,-25.54849 57.11907,-57.0743 0,-31.5258 -25.57212,-57.085934 -57.12133,-57.085934 z m 0,20.032217 c 20.47811,0 37.08131,16.588517 37.08131,37.053717 0,20.46295 -16.6032,37.05372 -37.08131,37.05372 -20.48036,0 -37.081203,-16.59077 -37.081203,-37.05372 0,-20.4652 16.600843,-37.053717 37.081203,-37.053717 z"
       inkscape:connector-curvature="0"
       fill="#ffffff"
       id="path15"
       style="display:inline;fill:#ff4c44;fill-opacity:1;stroke-width:1.13083" /></g></svg>
