<?xml version="1.0" encoding="UTF-8" standalone="no"?>
<!-- Created with Inkscape (http://www.inkscape.org/) -->

<svg
   width="1024"
   height="1024"
   viewBox="0 0 270.93332 270.93333"
   version="1.1"
   id="svg1"
   inkscape:version="1.4 (86a8ad7, 2024-10-11)"
   xml:space="preserve"
   sodipodi:docname="socialmedia.svg"
   xmlns:inkscape="http://www.inkscape.org/namespaces/inkscape"
   xmlns:sodipodi="http://sodipodi.sourceforge.net/DTD/sodipodi-0.dtd"
   xmlns:xlink="http://www.w3.org/1999/xlink"
   xmlns="http://www.w3.org/2000/svg"
   xmlns:svg="http://www.w3.org/2000/svg"><sodipodi:namedview
     id="namedview1"
     pagecolor="#292929"
     bordercolor="#eeeeee"
     borderopacity="1"
     inkscape:showpageshadow="false"
     inkscape:pageopacity="0"
     inkscape:pagecheckerboard="false"
     inkscape:deskcolor="#1a1a1a"
     inkscape:document-units="mm"
     showborder="true"
     borderlayer="true"
     labelstyle="default"
     inkscape:clip-to-page="false"
     showgrid="false"
     inkscape:zoom="0.70710678"
     inkscape:cx="603.86919"
     inkscape:cy="556.49303"
     inkscape:window-width="2560"
     inkscape:window-height="1351"
     inkscape:window-x="1341"
     inkscape:window-y="366"
     inkscape:window-maximized="1"
     inkscape:current-layer="layer3"
     showguides="true"><inkscape:grid
       id="grid1"
       units="mm"
       originx="0"
       originy="0"
       spacingx="0.99999995"
       spacingy="0.99999999"
       empcolor="#0099e5"
       empopacity="0.30196078"
       color="#0099e5"
       opacity="0.14901961"
       empspacing="5"
       enabled="true"
       visible="false" /><sodipodi:guide
       position="34.050139,246.62783"
       orientation="0,1"
       id="guide9"
       inkscape:locked="false"
       inkscape:label=""
       inkscape:color="rgb(0,134,229)" /><sodipodi:guide
       position="60.242548,24.305493"
       orientation="0,-1"
       id="guide10"
       inkscape:locked="false" /><sodipodi:guide
       position="24.896127,89.642842"
       orientation="1,0"
       id="guide11"
       inkscape:locked="false" /><sodipodi:guide
       position="246.70924,55.407187"
       orientation="1,0"
       id="guide12"
       inkscape:locked="false" /></sodipodi:namedview><defs
     id="defs1"><radialGradient
       id="f"
       cx="158.429"
       cy="578.088"
       r="52.3515"
       xlink:href="#a"
       gradientUnits="userSpaceOnUse"
       gradientTransform="matrix(0,-4.03418,4.28018,0,-2332.2273,942.2356)"
       fx="158.429"
       fy="578.088" /><linearGradient
       id="c"><stop
         offset="0"
         stop-color="#780cff"
         id="stop3" /><stop
         stop-color="#820bff"
         offset="1"
         stop-opacity="0"
         id="stop4" /></linearGradient><linearGradient
       id="a"><stop
         offset="0"
         stop-color="#fc0"
         id="stop7" /><stop
         offset=".1242"
         stop-color="#fc0"
         id="stop8" /><stop
         offset=".5672"
         stop-color="#fe4a05"
         id="stop9" /><stop
         offset=".6942"
         stop-color="#ff0f3f"
         id="stop10" /><stop
         offset="1"
         stop-color="#fe0657"
         stop-opacity="0"
         id="stop11" /></linearGradient></defs><rect
     style="fill:#ff4c44;fill-opacity:1;stroke:none;stroke-width:5.29167;stroke-miterlimit:4.9;stroke-dasharray:none;stroke-opacity:1;paint-order:normal"
     id="rect8"
     width="10"
     height="10"
     x="-155"
     y="-24.708334"
     inkscape:label="Color" /><g
     inkscape:groupmode="layer"
     id="layer3"
     inkscape:label="Layer 1"><path
       id="rect9"
       style="fill:#ff4c44;fill-opacity:0.2;stroke:#ff4c44;stroke-width:14.9964;stroke-miterlimit:4.9;stroke-dasharray:none;stroke-opacity:1;paint-order:normal"
       d="M 40.865206 7.4982503 L 7.4982503 40.865206 L 7.4982503 195.97512 L 31.707625 195.97512 L 31.707625 223.44579 L 7.4982503 223.44579 L 7.4982503 263.43508 L 200.07564 263.43508 L 263.43508 200.07564 L 263.43508 7.4982503 L 40.865206 7.4982503 z " /><path
       d="m 135.4749,42.195845 c -23.91138,0 -26.91222,0.104446 -36.303698,0.531538 -9.37304,0.428884 -15.77093,1.911716 -21.369139,4.087454 -5.790723,2.247071 -10.702918,5.253009 -15.596675,10.144976 -4.897426,4.890266 -7.905692,9.798701 -10.161802,15.583339 -2.182809,5.595883 -3.668595,11.990819 -4.090407,21.353299 -0.420023,9.384409 -0.530107,12.384889 -0.530107,36.278539 0,23.89376 0.106416,26.88314 0.531897,36.26754 0.43112,9.36616 1.915025,15.75929 4.090407,21.35331 2.250651,5.78651 5.258827,10.69494 10.154463,15.58512 4.892057,4.89385 9.804161,7.90721 15.591215,10.15428 5.60179,2.17566 12.001649,3.65848 21.372809,4.08746 9.391477,0.42691 12.390437,0.53145 36.300027,0.53145 23.91326,0 26.90497,-0.10445 36.29635,-0.53155 9.37314,-0.42888 15.77837,-1.9117 21.38015,-4.08745 5.78894,-2.24698 10.69379,-5.26034 15.58576,-10.15419 4.89742,-4.89018 7.9057,-9.79861 10.1618,-15.58325 2.16438,-5.59589 3.65016,-11.99082 4.09041,-21.3533 0.42181,-9.38441 0.5319,-12.37576 0.5319,-36.26942 0,-23.89375 -0.11009,-26.89226 -0.5319,-36.27675 -0.44025,-9.366149 -1.92603,-15.759205 -4.09041,-21.35321 -2.2561,-5.786516 -5.26438,-10.695039 -10.1618,-15.585217 -4.89752,-4.893846 -9.79504,-7.899785 -15.59122,-10.145066 -5.61288,-2.175648 -12.01444,-3.65848 -21.38748,-4.087364 -9.39148,-0.427092 -12.38131,-0.531538 -36.30003,-0.531538 z m -7.89835,15.854613 c 2.34426,-0.0036 4.95989,0 7.89835,0 23.50792,0 26.29412,0.08431 35.57731,0.505852 8.58438,0.392277 13.24337,1.825527 16.34696,3.029745 4.10875,1.594617 7.03808,3.500873 10.11776,6.580112 3.08157,3.079327 4.98916,6.011967 6.5887,10.117588 1.20512,3.097587 2.64132,7.753185 3.03198,16.3312 0.42191,9.274415 0.51365,12.060445 0.51365,35.539905 0,23.47936 -0.0917,26.26548 -0.51365,35.5399 -0.39253,8.57793 -1.82686,13.23353 -3.03198,16.33111 -1.59578,4.10571 -3.50713,7.02922 -6.5887,10.10659 -3.08147,3.07932 -6.00721,4.98549 -10.11776,6.5801 -3.09992,1.20977 -7.76258,2.63935 -16.34696,3.03163 -9.28131,0.42154 -12.06939,0.51318 -35.57731,0.51318 -23.50971,0 -26.29592,-0.0916 -35.577318,-0.51318 -8.584279,-0.39586 -13.243279,-1.8292 -16.34874,-3.03341 -4.108755,-1.59462 -7.043631,-3.50088 -10.125108,-6.58012 -3.081565,-3.07924 -4.989163,-6.00454 -6.588704,-10.11213 -1.205112,-3.09759 -2.641316,-7.75319 -3.031982,-16.33111 -0.421902,-9.2745 -0.5063,-12.06045 -0.5063,-35.55458 0,-23.49404 0.0844,-26.26549 0.5063,-35.539903 0.392546,-8.578014 1.82687,-13.233523 3.031982,-16.334778 1.595782,-4.105712 3.507139,-7.038351 6.588704,-10.11759 3.081477,-3.079328 6.016353,-4.985493 10.125108,-6.58378 3.103582,-1.209769 7.764461,-2.639347 16.34874,-3.033505 8.122108,-0.36659 11.269728,-0.476496 27.679058,-0.494933 z m 54.89583,14.608148 c -5.83296,0 -10.56545,4.72344 -10.56545,10.553811 0,5.828672 4.73249,10.557571 10.56545,10.557571 5.83288,0 10.56536,-4.728899 10.56536,-10.557571 0,-5.828582 -4.73248,-10.557391 -10.56544,-10.557391 z M 135.4749,84.994 c -24.96981,0 -45.214472,20.22971 -45.214472,45.18099 0,24.95129 20.244662,45.17179 45.214472,45.17179 24.9698,0 45.20722,-20.2205 45.20722,-45.17179 0,-24.95128 -20.2392,-45.18099 -45.20901,-45.18099 z m 0,15.85461 c 16.20752,0 29.34822,13.12908 29.34822,29.32638 0,16.19552 -13.1407,29.32638 -29.34822,29.32638 -16.2093,0 -29.34813,-13.13086 -29.34813,-29.32638 0,-16.1973 13.13883,-29.32638 29.34813,-29.32638 z"
       inkscape:connector-curvature="0"
       fill="#ffffff"
       id="path15"
       style="display:inline;fill:#ff4c44;fill-opacity:1;stroke-width:0.895002" /></g></svg>
