<?xml version="1.0" encoding="UTF-8" standalone="no"?>
<!-- Created with Inkscape (http://www.inkscape.org/) -->

<svg
   width="1024"
   height="1024"
   viewBox="0 0 270.93332 270.93333"
   version="1.1"
   id="svg1"
   inkscape:version="1.4 (86a8ad7, 2024-10-11)"
   xml:space="preserve"
   sodipodi:docname="socialmedia.svg"
   inkscape:export-filename="steam.png"
   inkscape:export-xdpi="96"
   inkscape:export-ydpi="96"
   xmlns:inkscape="http://www.inkscape.org/namespaces/inkscape"
   xmlns:sodipodi="http://sodipodi.sourceforge.net/DTD/sodipodi-0.dtd"
   xmlns:xlink="http://www.w3.org/1999/xlink"
   xmlns="http://www.w3.org/2000/svg"
   xmlns:svg="http://www.w3.org/2000/svg"><sodipodi:namedview
     id="namedview1"
     pagecolor="#292929"
     bordercolor="#eeeeee"
     borderopacity="1"
     inkscape:showpageshadow="false"
     inkscape:pageopacity="0"
     inkscape:pagecheckerboard="false"
     inkscape:deskcolor="#1a1a1a"
     inkscape:document-units="mm"
     showborder="true"
     borderlayer="true"
     labelstyle="default"
     inkscape:clip-to-page="false"
     showgrid="false"
     inkscape:zoom="0.70710678"
     inkscape:cx="457.49809"
     inkscape:cy="548.00775"
     inkscape:window-width="2560"
     inkscape:window-height="1351"
     inkscape:window-x="1341"
     inkscape:window-y="366"
     inkscape:window-maximized="1"
     inkscape:current-layer="layer5"
     showguides="true"><inkscape:grid
       id="grid1"
       units="mm"
       originx="0"
       originy="0"
       spacingx="0.99999995"
       spacingy="0.99999999"
       empcolor="#0099e5"
       empopacity="0.30196078"
       color="#0099e5"
       opacity="0.14902"
       empspacing="5"
       enabled="true"
       visible="false" /><sodipodi:guide
       position="60.743796,212.66442"
       orientation="1,0"
       id="guide26"
       inkscape:locked="false" /><sodipodi:guide
       position="220.08513,53.43966"
       orientation="1,0"
       id="guide27"
       inkscape:locked="false" /></sodipodi:namedview><defs
     id="defs1"><linearGradient
       id="linearGradient16"
       inkscape:collect="always"><stop
         style="stop-color:#27f59a;stop-opacity:1;"
         offset="0"
         id="stop16" /><stop
         style="stop-color:#55dce4;stop-opacity:1;"
         offset="1"
         id="stop17" /></linearGradient><radialGradient
       id="f"
       cx="158.429"
       cy="578.088"
       r="52.3515"
       xlink:href="#a"
       gradientUnits="userSpaceOnUse"
       gradientTransform="matrix(0,-4.03418,4.28018,0,-2332.2273,942.2356)"
       fx="158.429"
       fy="578.088" /><linearGradient
       id="c"><stop
         offset="0"
         stop-color="#780cff"
         id="stop3" /><stop
         stop-color="#820bff"
         offset="1"
         stop-opacity="0"
         id="stop4" /></linearGradient><linearGradient
       id="a"><stop
         offset="0"
         stop-color="#fc0"
         id="stop7" /><stop
         offset=".1242"
         stop-color="#fc0"
         id="stop8" /><stop
         offset=".5672"
         stop-color="#fe4a05"
         id="stop9" /><stop
         offset=".6942"
         stop-color="#ff0f3f"
         id="stop10" /><stop
         offset="1"
         stop-color="#fe0657"
         stop-opacity="0"
         id="stop11" /></linearGradient><linearGradient
       inkscape:collect="always"
       xlink:href="#linearGradient16"
       id="linearGradient17"
       x1="157.69189"
       y1="12.912374"
       x2="86.783165"
       y2="284.90405"
       gradientUnits="userSpaceOnUse" /><linearGradient
       inkscape:collect="always"
       xlink:href="#linearGradient16"
       id="linearGradient19"
       x1="176.74167"
       y1="6.6145892"
       x2="112.7125"
       y2="248.97292"
       gradientUnits="userSpaceOnUse" /><style
       id="style1">.cls-1{fill:#fff;}</style><linearGradient
       id="A"
       x2="50%"
       x1="50%"
       y2="100%"
       y1="0%"><stop
         stop-color="#111d2e"
         offset="0%"
         id="stop1" /><stop
         stop-color="#051839"
         offset="21.2%"
         id="stop2" /><stop
         stop-color="#0a1b48"
         offset="40.7%"
         id="stop3-9" /><stop
         stop-color="#132e62"
         offset="58.1%"
         id="stop4-2" /><stop
         stop-color="#144b7e"
         offset="73.8%"
         id="stop5" /><stop
         stop-color="#136497"
         offset="87.3%"
         id="stop6" /><stop
         stop-color="#1387b8"
         offset="100%"
         id="stop7-7" /></linearGradient><linearGradient
       inkscape:collect="always"
       xlink:href="#linearGradient16"
       id="linearGradient45"
       x1="86.566704"
       y1="226.85999"
       x2="195.56236"
       y2="69.621277"
       gradientUnits="userSpaceOnUse" /><linearGradient
       inkscape:collect="always"
       xlink:href="#linearGradient16"
       id="linearGradient46"
       gradientUnits="userSpaceOnUse"
       x1="86.566704"
       y1="226.85999"
       x2="195.56236"
       y2="69.621277"
       gradientTransform="matrix(0.99455592,0,0,0.99455592,6.7666482,5.3357257)" /><linearGradient
       inkscape:collect="always"
       xlink:href="#linearGradient16"
       id="linearGradient47"
       gradientUnits="userSpaceOnUse"
       x1="86.566704"
       y1="226.85999"
       x2="195.56236"
       y2="69.621277"
       gradientTransform="translate(5.2916667,10.671451)" /></defs><g
     inkscape:groupmode="layer"
     id="layer4"
     inkscape:label="Bcg"
     transform="matrix(0.99455592,0,0,0.99455592,1.4749815,0)"><path
       style="opacity:0.4;fill:url(#linearGradient19);fill-opacity:1;stroke:none;stroke-width:15.875;stroke-miterlimit:4.9;stroke-dasharray:none;stroke-opacity:1;paint-order:normal"
       d="M 16.933333,19.579166 233.89166,15.345833 259.82083,250.29583 40.216666,257.175 Z"
       id="path16" /><path
       id="path13"
       style="font-size:50.8px;line-height:1;font-family:'Kill The Noise';-inkscape-font-specification:'Kill The Noise';text-align:center;text-anchor:middle;fill:url(#linearGradient17);stroke:none;stroke-width:10.5833;stroke-linecap:butt;stroke-linejoin:miter;stroke-miterlimit:4.9;stroke-dasharray:none;stroke-opacity:1;paint-order:stroke markers fill"
       d="M 3.9485962,0 C 1.1796295,3.5221531 -0.13271462,11.692009 0.01085205,24.509098 3.6668587,50.793917 4.6562364,65.947037 2.9796631,69.969373 12.27113,100.68451 15.670787,123.59826 13.178007,138.70988 c 8.118887,59.24871 11.992003,95.01467 11.619963,107.29836 4.68555,6.14213 8.115255,9.76091 10.289811,10.85618 l -1.901176,-0.26716 -2.69906,1.40301 c -0.996687,2.84465 -3.288573,5.14149 -6.876066,6.89054 l 0.561206,0.87798 c 0.423542,0.2297 7.257048,0.5123 17.029451,0.81959 1.238613,1.14141 2.378658,2.57106 3.400826,4.34495 l 1.068152,-0.60099 c 0.07843,-0.21311 0.08872,-1.59586 0.06253,-3.60909 19.377904,0.55558 51.196733,1.21481 99.027026,2.0066 21.54864,4.49703 39.28592,4.87978 53.21226,1.14825 25.4366,0.81797 44.98574,-0.52878 58.64707,-4.04006 l 0.0207,-2.2009 4.24521,-1.28933 0.90899,1.56115 c 3.14946,0.91349 5.81037,3.25487 7.98246,7.02437 l 1.06764,-0.60099 c 0.541,-1.47006 -1.40719,-45.76989 -5.84461,-132.89887 3.27328,-24.10303 2.32831,-43.646359 -2.83548,-58.630011 -0.98653,-28.002572 -3.93057,-49.385911 -8.83151,-64.15009 l -2.2965,0.03876 -2.14043,-5.3903682 -1.59784,-2.7677897 0.35605,0.00517 C 247.28053,5.9540887 247.41342,5.507775 248.05362,5.199688 l -0.001,-5.167e-4 c -2.60439,-2.3287264 -8.5257,-3.8508172 -17.37413,-4.661731 l -0.0129,-0.22737631 c -0.23022,0.15318485 -0.43102,0.16181406 -0.63252,0.17208252 -0.10894,-0.009379 -0.21726,-0.0192655 -0.32711,-0.028422 C 229.49691,0.37572603 229.29549,0.25930699 229.12297,0 229.03682,0.10957324 228.96496,0.26435334 228.88164,0.38292236 227.90599,0.30814577 227.08072,0.19695265 226.03582,0.1390096 202.03,1.7167479 188.26867,1.670477 184.75203,0 156.38227,6.4364805 135.45947,8.0846296 121.98377,4.944401 67.804978,8.6319964 35.201187,9.9055908 24.171651,8.7653564 23.970292,8.8980629 23.823828,9.0085006 23.628015,9.1389771 L 21.428666,5.3283569 C 19.78512,6.3927015 18.254061,8.1852105 16.835148,10.70684 l -0.926558,0.6165 C 11.636016,6.6581486 8.2136529,3.8525029 5.6409993,2.9057658 L 5.4916545,0.31005859 C 4.8740411,0.72100893 4.3595095,0.61760833 3.9485962,0 Z M 31.549495,27.384892 c 20.101423,0.495904 49.983351,1.073177 89.855495,1.733227 21.54864,4.497027 39.28592,4.879783 53.21226,1.148251 21.05021,0.676921 38.00317,-0.152684 50.98913,-2.440678 3.24499,24.050416 4.14536,38.310555 2.54765,42.143681 9.29147,30.715137 12.69061,53.628887 10.19783,68.740507 7.03844,51.36402 10.87454,85.01287 11.5316,101.08013 -0.17526,-0.0103 -0.31468,-0.0294 -0.49196,-0.0393 -24.00582,1.57774 -37.76715,1.53095 -41.28379,-0.13953 -28.36976,6.43648 -49.29256,8.08463 -62.76826,4.94441 -54.178796,3.6876 -86.782585,4.96171 -97.812118,3.82147 -0.874134,0.5761 -1.592886,1.08977 -2.359546,1.62264 C 44.364814,229.2977 42.661437,193.09742 39.82651,137.43347 43.099783,113.33044 42.1543,93.787111 36.990507,78.803459 36.257867,58.007477 34.441017,40.879606 31.549495,27.384892 Z" /></g><g
     inkscape:groupmode="layer"
     id="layer5"
     inkscape:label="Icons"
     style="display:inline;fill:url(#linearGradient45);fill-opacity:1"
     transform="matrix(0.99999999,0,0,0.99174263,-4.772141,-11.49795)"><path
       d="m 145.75056,63.605348 c -21.63723,-0.01004 -24.35272,0.0832 -32.85117,0.465735 -8.48177,0.384157 -14.271797,1.723272 -19.338488,3.689729 -5.240926,2.030925 -9.687196,4.748912 -14.117574,9.17356 -4.433698,4.423108 -7.157919,8.863449 -9.201885,14.096975 -1.977556,5.062757 -3.32472,10.848863 -3.710348,19.320723 -0.384018,8.4917 -0.484892,11.20677 -0.494929,32.82796 -0.01003,21.62128 0.085,24.32639 0.466073,32.81844 0.386183,8.47556 1.726271,14.26127 3.692408,19.32417 2.034166,5.23712 4.754179,9.67999 9.18215,14.10712 4.42473,4.43046 8.868388,7.1593 14.104107,9.19508 5.068103,1.97109 10.858666,3.31558 19.338366,3.7077 8.4981,0.39024 11.2118,0.4861 32.84741,0.49615 21.63892,0.01 24.34614,-0.0832 32.8445,-0.46575 8.48187,-0.38415 14.27855,-1.72326 19.34847,-3.68972 5.2393,-2.03084 9.67893,-4.75555 14.10769,-9.1819 4.43369,-4.42302 7.15792,-8.86337 9.20188,-14.0969 1.96088,-5.06277 3.30804,-10.84887 3.71035,-19.32072 0.38564,-8.49171 0.48651,-11.1985 0.49656,-32.8197 0.01,-21.62128 -0.0883,-24.33465 -0.46608,-32.82678 -0.39444,-8.47555 -1.73623,-14.261201 -3.69241,-19.324084 -2.03909,-5.237121 -4.7592,-9.68007 -9.18878,-14.107213 -4.42968,-4.430461 -8.86014,-7.15257 -14.10413,-9.186744 -5.07813,-1.971084 -10.87023,-3.315577 -19.35165,-3.707609 -8.49809,-0.390417 -11.20353,-0.486185 -32.84739,-0.496233 z m -7.15382,14.343402 c 2.12129,-0.0023 4.48816,0.0021 7.14715,0.0033 21.27214,0.0098 23.79331,0.08734 32.19342,0.472687 7.76779,0.358573 11.98308,1.657469 14.79099,2.74846 3.7173,1.444682 6.36722,3.170869 9.15272,5.958544 2.78719,2.787754 4.51211,5.442279 5.95779,9.158095 1.08921,2.803489 2.38686,7.016904 2.73676,14.779254 0.3779,8.39253 0.45974,10.91363 0.44988,32.16001 -0.01,21.2463 -0.094,23.7674 -0.47973,32.15956 -0.35881,7.76196 -1.65867,11.97417 -2.75048,14.77665 -1.44572,3.71454 -3.17653,6.3592 -5.96631,9.14259 -2.78969,2.78516 -5.43797,4.50881 -9.15824,5.95004 -2.80561,1.0934 -7.02541,2.38506 -14.79352,2.73643 -8.39877,0.37754 -10.92172,0.45931 -32.19385,0.44942 -21.27376,-0.01 -23.79494,-0.0939 -32.19344,-0.47931 -7.76768,-0.36181 -11.98297,-1.66079 -14.79257,-2.75178 -3.717312,-1.44469 -6.372258,-3.17088 -9.15937,-5.95856 -2.787191,-2.78767 -4.512133,-5.43555 -5.957821,-9.15315 -1.089195,-2.8035 -2.386848,-7.01691 -2.736756,-14.77916 -0.37788,-8.39261 -0.453081,-10.91362 -0.443212,-32.1733 0.0098,-21.25957 0.0874,-23.7674 0.473079,-32.15957 0.358815,-7.76202 1.658679,-11.974155 2.750478,-14.779951 1.445736,-3.714556 3.176541,-6.367477 5.966319,-9.152561 2.789699,-2.785168 5.446246,-4.508809 9.164899,-5.95336 2.808914,-1.093407 7.027104,-2.385064 14.795124,-2.738128 7.34979,-0.328312 10.1981,-0.426444 25.04678,-0.436233 z m 49.66869,13.241864 c -5.27821,-0.0025 -9.56259,4.269766 -9.56504,9.545626 -0.002,5.27432 4.27796,9.55545 9.55616,9.5579 5.27813,0.002 9.56251,-4.2747 9.56496,-9.54903 0.002,-5.274234 -4.27796,-9.555286 -9.55616,-9.557737 z m -42.53285,11.142456 c -22.595,-0.0105 -40.92273,18.28673 -40.93322,40.86496 -0.0105,22.57823 18.30027,40.8841 40.89526,40.8946 22.59498,0.0104 40.91616,-18.27839 40.92665,-40.85663 0.0104,-22.57823 -18.29532,-40.89244 -40.89032,-40.90293 z m -0.007,14.34673 c 14.66606,0.007 26.55146,11.89274 26.54466,26.54955 -0.007,14.65521 -11.90325,26.5317 -26.5693,26.52488 -14.66767,-0.007 -26.55139,-11.89433 -26.54459,-26.54954 0.007,-14.65681 11.90155,-26.5317 26.56923,-26.52489 z"
       inkscape:connector-curvature="0"
       fill="#ffffff"
       id="path15"
       style="display:none;fill:url(#linearGradient46);fill-opacity:1;stroke-width:0.809881"
       inkscape:label="Instagram" /><path
       id="Discord-Symbol-White"
       class="cls-1"
       d="m 168.37277,82.88036 c -1.54686,2.746457 -2.93589,5.587632 -4.1986,8.491969 -11.99612,-1.799415 -24.2132,-1.799415 -36.24083,0 -1.23115,-2.904337 -2.65183,-5.745512 -4.1986,-8.491969 -11.27003,1.925737 -22.25596,5.303524 -32.673572,10.070341 -20.645974,30.590099 -26.233606,60.390829 -23.455545,89.781229 12.09075,8.93396 25.633786,15.75274 40.060617,20.10922 3.25156,-4.35648 6.12438,-8.99702 8.58673,-13.827 -4.67224,-1.73625 -9.18655,-3.91449 -13.51144,-6.43996 1.13644,-0.82081 2.24136,-1.67313 3.31468,-2.49395 25.34968,11.93297 54.70857,11.93297 80.08971,0 1.07332,0.88393 2.17824,1.73625 3.31467,2.49395 -4.32487,2.55698 -8.83919,4.70371 -13.54289,6.47161 2.46235,4.82993 5.33503,9.47052 8.58669,13.827 14.42649,-4.35648 27.96938,-11.1438 40.06112,-20.07761 3.28227,-34.09425 -5.61966,-63.64248 -23.51979,-89.812837 -10.38544,-4.766865 -21.37141,-8.144746 -32.64144,-10.038879 z m -48.58418,81.76285 c -7.79738,0 -14.26894,-7.07142 -14.26894,-15.8159 0,-8.74442 6.21896,-15.8475 14.23748,-15.8475 8.01847,0 14.39522,7.13454 14.26894,15.8475 -0.12613,8.71297 -6.28207,15.8159 -14.23748,15.8159 z m 52.59344,0 c -7.82913,0 -14.23748,-7.07142 -14.23748,-15.8159 0,-8.74442 6.21901,-15.8475 14.23748,-15.8475 8.01852,0 14.36371,7.13454 14.23739,15.8475 -0.12613,8.71297 -6.28212,15.8159 -14.23739,15.8159 z"
       style="display:none;fill:url(#linearGradient47);fill-opacity:1;stroke-width:1.24992"
       inkscape:label="discord" /><path
       id="path3369"
       style="display:none;fill:url(#linearGradient45);fill-opacity:1;fill-rule:evenodd;stroke:none;stroke-width:1.64196"
       d="m 81.441318,76.475772 -6.400256,25.613068 v 115.24789 h 28.814398 v 16.01145 h 16.00425 l 16.01146,-16.01145 h 25.60824 l 51.22127,-51.21647 V 76.475772 Z M 94.251465,89.281096 H 199.90259 v 70.429284 l -22.41652,22.41412 h -35.21222 l -19.20799,19.20556 V 182.1245 H 94.251465 Z m 35.217025,25.608234 v 38.42319 h 12.80536 v -38.42319 z m 35.21224,0 v 38.42319 h 12.80534 v -38.42319 z"
       inkscape:label="Twitch" /><path
       id="path1"
       class="style-scope yt-icon"
       d="m 145.18565,97.878072 c 0,0 -49.829103,9.3e-5 -62.250592,3.331718 -6.859961,1.83634 -12.25106,7.22738 -14.087394,14.08739 -3.33163,12.42144 -3.331722,38.35293 -3.331722,38.35293 0,0 9.2e-5,25.9314 3.331722,38.3529 1.836334,6.85998 7.227433,12.25138 14.087394,14.08742 12.421489,3.33182 62.250592,3.33171 62.250592,3.33171 0,0 49.83151,1.1e-4 62.25252,-3.33171 6.85996,-1.83604 12.25136,-7.22744 14.08737,-14.08742 3.33186,-12.4215 3.33174,-38.3529 3.33174,-38.3529 0,0 -0.0147,-25.93149 -3.33174,-38.35293 -1.83601,-6.86001 -7.22741,-12.25105 -14.08737,-14.08739 -12.42101,-3.331625 -62.25252,-3.331718 -62.25252,-3.331718 z m -15.94766,31.876268 41.39493,23.89768 -41.39493,23.89767 z"
       style="display:none;fill:url(#linearGradient45);fill-opacity:1;stroke-width:5.57719"
       inkscape:label="Youtube" /><path
       style="display:none;fill:url(#linearGradient45);fill-opacity:1;stroke-width:1.12189"
       d="m 127.34779,217.3805 c -0.29964,-0.009 -1.66083,-0.3457 -3.02489,-0.74892 -1.36405,-0.40321 -3.74849,-1.20819 -5.29878,-1.78885 -1.5503,-0.58065 -4.04079,-1.62501 -5.53441,-2.3208 -1.49364,-0.69579 -4.18502,-2.14076 -5.98085,-3.21102 -1.79584,-1.07026 -4.62359,-2.96039 -6.28389,-4.20026 -1.660288,-1.23986 -4.515158,-3.68825 -6.344135,-5.44085 -1.828986,-1.75259 -4.387543,-4.45858 -5.685688,-6.01329 -1.298147,-1.55472 -3.335238,-4.29607 -4.526867,-6.09191 -1.19163,-1.79584 -2.904845,-4.66769 -3.807143,-6.38191 -0.902299,-1.7142 -1.729668,-3.41729 -1.838598,-3.78461 -0.198056,-0.66788 -0.198056,-0.66788 14.626994,-0.66788 14.825067,0 14.825067,0 15.482077,2.89413 0.36137,1.59177 1.11405,4.53528 1.67264,6.54116 0.55858,2.00589 1.56491,5.14489 2.23628,6.97558 0.67137,1.83068 1.87444,4.78185 2.67347,6.55813 0.79904,1.77629 2.20633,4.51458 3.12731,6.08507 0.92097,1.57051 2.57256,4.05763 3.67017,5.52696 1.09762,1.46931 2.75739,3.43955 3.68839,4.37827 1.20399,1.214 1.53541,1.70224 1.14792,1.691 z m 33.61031,-0.10815 c -1.16799,0.21063 -1.16799,0.21063 0.55989,-1.5395 0.95033,-0.96255 2.62338,-2.95229 3.71791,-4.4216 1.09451,-1.46932 2.74356,-3.95645 3.66453,-5.52695 0.92098,-1.5705 2.32828,-4.30879 3.12731,-6.08508 0.79904,-1.77629 2.0021,-4.72744 2.67347,-6.55813 0.67137,-1.83068 1.6777,-4.96969 2.23628,-6.97557 0.55859,-2.00588 1.31127,-4.9494 1.67265,-6.54117 0.65701,-2.89413 0.65701,-2.89413 15.48207,-2.89413 14.82505,0 14.82505,0 14.62699,0.66788 -0.10892,0.36732 -0.93914,2.07041 -1.84491,3.78462 -0.90579,1.71421 -2.47082,4.3857 -3.47785,5.93666 -1.00704,1.55094 -2.90757,4.15566 -4.22342,5.78823 -1.31585,1.63259 -3.97847,4.50664 -5.91696,6.38678 -1.9385,1.88014 -4.92706,4.46563 -6.64127,5.74553 -1.7142,1.27989 -4.71963,3.27746 -6.67872,4.43904 -1.9591,1.16158 -5.0213,2.76339 -6.80488,3.55958 -1.78358,0.7962 -4.98938,2.02711 -7.12399,2.7354 -2.13461,0.70827 -4.40672,1.38256 -5.0491,1.49841 z m -16.34515,-2.69577 c -1.1428,0.0692 -2.59508,-0.005 -3.2273,-0.16268 -0.6322,-0.15871 -2.10152,-0.7881 -3.26516,-1.39861 -1.44284,-0.75703 -2.92361,-1.91251 -4.65612,-3.63329 -1.4415,-1.43176 -3.39631,-3.81447 -4.519,-5.50824 -1.08822,-1.64175 -2.8369,-4.78075 -3.88595,-6.97557 -1.04907,-2.19482 -2.52478,-5.7789 -3.27937,-7.96463 -0.7546,-2.18574 -1.75214,-5.45832 -2.21675,-7.27241 -0.46464,-1.8141 -0.93175,-3.66567 -1.03807,-4.11464 -0.19328,-0.81629 -0.19328,-0.81629 25.34563,-0.81629 25.53894,0 25.53894,0 25.34566,0.81629 -0.10636,0.44897 -0.57346,2.30054 -1.03807,4.11464 -0.46462,1.81409 -1.45997,5.08667 -2.21188,7.27241 -0.7519,2.18573 -2.27414,5.8441 -3.38276,8.12972 -1.1086,2.28561 -2.8603,5.42462 -3.89264,6.97556 -1.03233,1.55095 -3.03779,3.97481 -4.45656,5.38636 -2.02579,2.01544 -3.11251,2.83041 -5.06173,3.79598 -2.01374,0.99753 -2.87419,1.2533 -4.55993,1.3554 z M 91.229655,167.23157 c -15.881119,0 -15.881119,0 -16.183671,-0.9647 -0.166403,-0.53059 -0.566217,-2.23367 -0.888478,-3.78461 -0.322259,-1.55096 -0.758119,-4.08888 -0.968577,-5.63983 -0.210459,-1.55095 -0.382651,-5.42461 -0.382651,-8.60815 0,-3.18353 0.172192,-7.05721 0.382651,-8.60816 0.210458,-1.55094 0.646318,-4.08886 0.968577,-5.63982 0.322261,-1.55095 0.722075,-3.25402 0.888478,-3.78461 0.302552,-0.96471 0.302552,-0.96471 16.183671,-0.96471 15.881125,0 15.881125,0 15.718025,0.81628 -0.0897,0.44897 -0.33297,2.48598 -0.54058,4.52672 -0.22406,2.20236 -0.37746,7.75192 -0.37746,13.6543 0,5.90238 0.1534,11.45193 0.37746,13.6543 0.20761,2.04073 0.45087,4.07775 0.54058,4.52671 0.1631,0.81628 0.1631,0.81628 -15.718025,0.81628 z m 52.641205,0 c -27.21024,0 -27.21024,0 -27.56372,-3.19094 -0.19441,-1.75503 -0.51053,-6.02943 -0.70247,-9.49866 -0.26743,-4.83359 -0.26743,-7.78179 0,-12.61539 0.19194,-3.46923 0.50806,-7.74362 0.70247,-9.49865 0.35348,-3.19095 0.35348,-3.19095 27.56372,-3.19095 27.21027,0 27.21027,0 27.56298,3.19095 0.19396,1.75503 0.50768,6.02942 0.69711,9.49865 0.26136,4.78625 0.26136,7.82915 0,12.61539 -0.18943,3.46923 -0.50315,7.74363 -0.69711,9.49866 -0.35271,3.19094 -0.35271,3.19094 -27.56298,3.19094 z m 52.6528,0 c -15.89269,0 -15.89269,0 -15.72959,-0.81628 0.0897,-0.44896 0.33297,-2.48598 0.54057,-4.52671 0.22405,-2.20237 0.37747,-7.75192 0.37747,-13.6543 0,-5.90238 -0.15342,-11.45194 -0.37747,-13.6543 -0.2076,-2.04074 -0.45086,-4.07775 -0.54057,-4.52672 -0.1631,-0.81628 -0.1631,-0.81628 15.72959,-0.81628 15.8927,0 15.8927,0 16.22151,1.22108 0.18084,0.6716 0.57574,2.37467 0.87755,3.78461 0.30181,1.40996 0.72064,3.83251 0.93073,5.38345 0.21011,1.55095 0.38201,5.42463 0.38201,8.60816 0,3.18354 -0.1719,7.0572 -0.38201,8.60815 -0.21009,1.55095 -0.62892,3.97351 -0.93073,5.38345 -0.30181,1.40994 -0.69671,3.11303 -0.87755,3.78462 -0.32881,1.22107 -0.32881,1.22107 -16.22151,1.22107 z M 93.649533,119.73831 c -14.82505,0 -14.82505,0 -14.626937,-0.66787 0.108958,-0.36733 0.932296,-2.07041 1.82963,-3.78463 0.897335,-1.7142 2.462727,-4.3857 3.47865,-5.93665 1.015922,-1.55094 2.923343,-4.15566 4.238712,-5.78823 1.315368,-1.63259 3.977615,-4.50663 5.916096,-6.386784 1.938482,-1.880144 4.927061,-4.465637 6.641256,-5.745532 1.71421,-1.279896 4.69628,-3.263333 6.62682,-4.40764 1.93052,-1.144306 5.00274,-2.74914 6.82714,-3.566294 1.8244,-0.817155 5.05356,-2.062213 7.17594,-2.766795 2.12236,-0.704583 4.38442,-1.375844 5.0268,-1.491692 1.16799,-0.210633 1.16799,-0.210633 -0.5509,1.539484 -0.94539,0.962563 -2.28647,2.484778 -2.98018,3.382697 -0.69369,0.89792 -1.92784,2.634391 -2.74254,3.858826 -0.81472,1.224436 -2.09178,3.361632 -2.83794,4.749321 -0.74614,1.3877 -1.96977,3.96685 -2.71915,5.731463 -0.74941,1.764606 -1.81259,4.502876 -2.36265,6.085076 -0.55006,1.58217 -1.40787,4.34601 -1.90625,6.14185 -0.49838,1.79584 -1.19939,4.56751 -1.55781,6.15929 -0.65162,2.89411 -0.65162,2.89411 -15.476687,2.89411 z m 50.221327,0 c -25.53891,0 -25.53891,0 -25.34563,-0.81629 0.10636,-0.44896 0.57343,-2.30054 1.03807,-4.11463 0.46461,-1.81409 1.46215,-5.08668 2.21675,-7.27242 0.75459,-2.18571 2.2303,-5.76981 3.27937,-7.964631 1.04905,-2.194812 2.79773,-5.333822 3.88595,-6.975568 1.13139,-1.706869 3.08389,-4.083893 4.55998,-5.55143 2.06519,-2.053218 3.10295,-2.824884 5.18955,-3.858827 2.47154,-1.224702 2.74261,-1.292386 5.17596,-1.292386 2.43337,0 2.70445,0.06768 5.176,1.292386 2.08657,1.033943 3.12435,1.805609 5.18953,3.858827 1.47609,1.467537 3.42859,3.844561 4.55998,5.55143 1.08823,1.641746 2.8369,4.780756 3.88596,6.975568 1.04906,2.194821 2.52478,5.778921 3.27936,7.964631 0.7546,2.18574 1.75214,5.45833 2.21676,7.27242 0.46461,1.81409 0.93175,3.66567 1.03807,4.11463 0.19328,0.81629 0.19328,0.81629 -25.34566,0.81629 z m 50.22649,0 c -14.81989,0 -14.81989,0 -15.63865,-3.48779 -0.45033,-1.91827 -1.28186,-5.09068 -1.84785,-7.04977 -0.56598,-1.95911 -1.62304,-5.12381 -2.34899,-7.03268 -0.72595,-1.90887 -1.89818,-4.71393 -2.60493,-6.233489 -0.70676,-1.519538 -1.99334,-3.96498 -2.85904,-5.434302 -0.86572,-1.469323 -2.46908,-3.873668 -3.56303,-5.342989 -1.09395,-1.469324 -2.76654,-3.45905 -3.71687,-4.421613 -1.72788,-1.750117 -1.72788,-1.750117 -0.55989,-1.542138 0.64238,0.114389 3.10874,0.859246 5.48079,1.655238 2.37203,0.795993 5.62474,2.056174 7.22824,2.800403 1.60348,0.744229 4.47141,2.275465 6.37316,3.402748 1.90177,1.127282 4.8603,3.09679 6.5745,4.376686 1.71421,1.279895 4.70277,3.865388 6.64127,5.745532 1.93849,1.880154 4.55822,4.702434 5.82164,6.271764 1.26343,1.56934 3.16555,4.17404 4.22698,5.78824 1.0614,1.61422 2.66931,4.33746 3.57315,6.05166 0.90382,1.71422 1.73245,3.4173 1.84137,3.78463 0.19806,0.66787 0.19806,0.66787 -14.62185,0.66787 z"
       id="path33"
       inkscape:label="Website" /><path
       id="path7"
       d="m 143.78521,69.621274 c -41.319,0 -75.1278,32.410696 -77.798255,73.393186 0.01197,0.0203 0.02118,0.0378 0.03315,0.058 v -0.009 l 41.897235,17.41379 a 19.833513,19.998649 0 0 1 3.65006,-1.96739 c 2.94335,-1.22105 6.04276,-1.76919 9.1323,-1.62669 l 19.07838,-27.94652 -0.009,-0.38871 h -0.0239 c 0,-16.4952 13.28479,-29.9091 29.61455,-29.9091 16.36143,0.0341 29.6193,13.4139 29.6193,29.9091 0,16.49521 -13.28224,29.9235 -29.6193,29.9235 l -0.66627,-0.009 -27.27318,19.66428 a 21.660925,21.841276 0 0 1 -1.66561,8.98281 21.63656,21.816709 0 0 1 -28.27254,11.75155 c -6.73,-2.82575 -11.31116,-8.70615 -12.773091,-15.4084 L 69.203946,171.17809 c 9.738754,32.21966 39.442904,55.6819 74.581244,55.6819 43.06115,0 77.96959,-35.1991 77.96959,-78.61877 0,-43.41967 -34.90844,-78.618767 -77.96959,-78.618767 z m 25.60282,39.002276 a 19.784782,19.949513 0 0 0 -19.73035,19.92821 19.784782,19.949513 0 0 0 19.73035,19.93301 19.784782,19.949513 0 0 0 19.73509,-19.93301 19.784782,19.949513 0 0 0 -19.73509,-19.92821 z m 0.0285,4.92327 c 8.17463,0 14.82393,6.70889 14.82393,14.97615 a 14.838586,14.962134 0 0 1 -14.82393,14.96655 14.838586,14.962134 0 0 1 -14.8144,-14.96655 14.838586,14.962134 0 0 1 14.8144,-14.97615 z m -49.47337,48.31619 c -2.08447,-0.0175 -4.13563,0.36182 -6.05806,1.09886 l 9.98889,4.1651 a 12.304575,12.407025 0 0 1 6.61486,16.21416 12.280209,12.382456 0 0 1 -16.06124,6.68432 l -9.64151,-4.03074 a 16.665998,16.804762 0 0 0 8.58979,8.25824 c 8.49625,3.56978 18.272,-0.47509 21.81474,-9.07399 h -0.0193 c 1.71045,-4.14222 1.71963,-8.72937 0.0239,-12.88879 -1.69584,-4.15942 -4.86643,-7.41401 -9.00857,-9.14116 -2.04427,-0.85617 -4.15919,-1.2685 -6.24366,-1.286 z"
       style="display:inline;fill:url(#linearGradient45);fill-opacity:1;stroke-width:2.44668"
       inkscape:label="Steam" /></g></svg>
