<?xml version="1.0" encoding="UTF-8" standalone="no"?>
<!-- Created with Inkscape (http://www.inkscape.org/) -->

<svg
   width="1024"
   height="1024"
   viewBox="0 0 270.93332 270.93333"
   version="1.1"
   id="svg1"
   inkscape:version="1.4 (86a8ad7, 2024-10-11)"
   xml:space="preserve"
   sodipodi:docname="dc.svg"
   xmlns:inkscape="http://www.inkscape.org/namespaces/inkscape"
   xmlns:sodipodi="http://sodipodi.sourceforge.net/DTD/sodipodi-0.dtd"
   xmlns="http://www.w3.org/2000/svg"
   xmlns:svg="http://www.w3.org/2000/svg"><sodipodi:namedview
     id="namedview1"
     pagecolor="#292929"
     bordercolor="#eeeeee"
     borderopacity="1"
     inkscape:showpageshadow="false"
     inkscape:pageopacity="0"
     inkscape:pagecheckerboard="false"
     inkscape:deskcolor="#1a1a1a"
     inkscape:document-units="mm"
     showborder="true"
     borderlayer="true"
     labelstyle="default"
     inkscape:clip-to-page="false"
     inkscape:zoom="0.78237498"
     inkscape:cx="639.07974"
     inkscape:cy="649.94409"
     inkscape:window-width="2560"
     inkscape:window-height="1351"
     inkscape:window-x="1341"
     inkscape:window-y="366"
     inkscape:window-maximized="1"
     inkscape:current-layer="svg1" /><defs
     id="defs1" /><path
     d="M 62.438256,234.74331 C 53.840213,231.79585 51.163773,230.76045 43.62812,227.46646 31.54871,222.18631 16.262077,213.65158 6.0078456,206.46255 L 1.0220253,202.9671 0.73300225,199.79429 C 0.57404419,198.04927 0.29249198,191.62436 0.10734069,185.51673 -0.69707553,158.98111 3.0109815,134.19986 11.524713,109.21345 17.667993,91.183945 26.738426,72.680757 37.592656,56.036293 l 3.596348,-5.514831 4.165724,-1.824514 c 13.130307,-5.750842 31.163629,-11.328096 45.704721,-14.13531 2.903164,-0.560473 5.572423,-0.906245 5.931659,-0.768392 0.359236,0.137904 2.165198,3.344338 4.013252,7.125515 l 3.3601,6.874872 1.96004,-0.255988 c 11.04627,-1.442666 16.6553,-1.786055 29.08802,-1.780762 12.35801,0.0051 18.56743,0.386389 29.08803,1.785422 l 1.96003,0.260647 3.38013,-6.887224 c 1.85907,-3.78796 3.64738,-6.989768 3.97404,-7.115115 0.83378,-0.319955 13.45416,2.317646 21.36882,4.465969 12.76999,3.466258 33.37415,11.137583 34.77753,12.94836 1.14522,1.477664 9.48738,14.786475 11.731,18.715253 1.20815,2.115569 3.97188,7.418677 6.14165,11.784653 17.66979,35.555232 25.19535,73.336352 22.60073,113.464162 -0.40383,6.24553 -0.64697,7.87321 -1.24647,8.34459 -1.55811,1.22515 -13.58474,9.15269 -16.83535,11.09727 -15.39423,9.20912 -32.7738,16.88279 -50.61133,22.3466 -0.89998,0.27567 -8.36695,-10.8807 -13.23935,-19.78088 l -1.8928,-3.45749 3.75002,-1.49058 c 4.47099,-1.77713 13.67058,-6.17284 17.02883,-8.13663 l 2.40066,-1.40382 -2.74187,-2.01845 c -1.50804,-1.11015 -2.92626,-2.01847 -3.15162,-2.01847 -0.22536,0 -1.77994,0.61478 -3.45463,1.36616 -13.20753,5.92581 -30.12088,10.4912 -46.44453,12.53666 -7.66963,0.96105 -27.80912,1.09854 -35.12737,0.23982 -16.72001,-1.96194 -32.720596,-6.10643 -46.809344,-12.12462 -2.59832,-1.10991 -4.882526,-2.01802 -5.076003,-2.01802 -0.473739,0 -5.451578,3.70451 -5.451578,4.05707 0,0.71225 14.768261,7.87645 21.557599,10.45776 l 1.125657,0.42798 -1.404652,2.78261 c -2.399446,4.75328 -12.694461,20.89483 -13.255465,20.78324 -0.05019,-0.0103 -3.252619,-1.1019 -7.116628,-2.4265 z m 31.984632,-62.85859 c 6.908172,-1.25237 13.346222,-6.19804 16.849932,-12.944 2.47195,-4.75944 3.3976,-8.48674 3.41817,-13.76381 0.0314,-8.05062 -2.37119,-14.05324 -7.81546,-19.52618 -4.90555,-4.9314 -10.048691,-7.19911 -16.353479,-7.21055 -11.069745,-0.02 -21.026098,8.33744 -23.752043,19.93788 -1.528474,6.50454 -0.509457,14.6945 2.555492,20.53885 1.916834,3.65505 7.00846,8.73895 10.682174,10.66595 4.661503,2.44513 9.427213,3.20612 14.415214,2.30186 z m 93.304142,-0.85521 c 7.08479,-2.44914 13.21541,-8.97696 15.75946,-16.78055 1.34214,-4.11686 1.64582,-12.27888 0.60589,-16.2849 -1.25882,-4.84919 -3.63318,-8.9767 -7.21283,-12.53852 -7.47984,-7.44257 -17.51373,-9.08913 -26.95999,-4.42415 -3.28565,1.62261 -8.4608,6.80547 -10.33904,10.35442 -3.15417,5.95983 -4.20455,14.31096 -2.6365,20.9615 1.47058,6.23722 6.07554,12.8239 11.32958,16.20521 2.17877,1.40217 6.46867,3.13753 8.83851,3.57536 2.25346,0.41634 7.99029,-0.16103 10.61492,-1.06837 z"
     style="fill:#54b7c6;stroke-width:1.71309;fill-opacity:1"
     id="path1-1" /></svg>
