<?xml version="1.0" encoding="UTF-8" standalone="no"?>
<!-- Created with Inkscape (http://www.inkscape.org/) -->

<svg
   width="1024"
   height="1024"
   viewBox="0 0 270.93332 270.93333"
   version="1.1"
   id="svg1"
   inkscape:version="1.4 (86a8ad7, 2024-10-11)"
   xml:space="preserve"
   sodipodi:docname="github.svg"
   xmlns:inkscape="http://www.inkscape.org/namespaces/inkscape"
   xmlns:sodipodi="http://sodipodi.sourceforge.net/DTD/sodipodi-0.dtd"
   xmlns="http://www.w3.org/2000/svg"
   xmlns:svg="http://www.w3.org/2000/svg"><sodipodi:namedview
     id="namedview1"
     pagecolor="#292929"
     bordercolor="#eeeeee"
     borderopacity="1"
     inkscape:showpageshadow="false"
     inkscape:pageopacity="0"
     inkscape:pagecheckerboard="false"
     inkscape:deskcolor="#1a1a1a"
     inkscape:document-units="mm"
     showborder="true"
     borderlayer="true"
     labelstyle="default"
     inkscape:clip-to-page="false"
     inkscape:zoom="0.78237498"
     inkscape:cx="433.93514"
     inkscape:cy="625.65906"
     inkscape:window-width="2560"
     inkscape:window-height="1351"
     inkscape:window-x="1341"
     inkscape:window-y="366"
     inkscape:window-maximized="1"
     inkscape:current-layer="svg1" /><defs
     id="defs1" /><path
     fill-rule="evenodd"
     clip-rule="evenodd"
     d="M 135.57913,0 C 60.607364,0 0,61.05414 0,136.58643 c 0,60.37708 38.833223,111.48501 92.70521,129.57365 6.735388,1.35989 9.20254,-2.93888 9.20254,-6.55504 0,-3.16649 -0.22205,-14.0202 -0.22205,-25.32913 -37.714838,8.14243 -45.568627,-16.28204 -45.568627,-16.28204 -6.061014,-15.82964 -15.041532,-19.89808 -15.041532,-19.89808 -12.344037,-8.36721 0.899109,-8.36721 0.899109,-8.36721 13.692795,0.90519 20.877759,14.02031 20.877759,14.02031 12.119249,20.80275 31.64826,14.92487 39.504841,11.3061 1.12117,-8.8196 4.71505,-14.92498 8.53093,-18.31626 -30.080295,-3.16649 -61.728555,-14.92498 -61.728555,-67.38996 0,-14.92498 5.383861,-27.13574 13.914792,-36.632504 -1.345957,-3.391273 -6.061004,-17.414311 1.348748,-36.18295 0,0 11.447655,-3.618777 37.259705,14.020311 a 130.35066,130.35066 0 0 1 33.89617,-4.52355 c 11.44766,0 23.11733,1.584664 33.89339,4.52355 25.81483,-17.639088 37.26248,-14.020311 37.26248,-14.020311 7.40975,18.768639 2.69194,32.791677 1.34597,36.18295 8.75572,9.496764 13.91757,21.707524 13.91757,36.632504 0,52.46498 -31.64826,63.99586 -61.95333,67.38996 4.93983,4.29595 9.20253,12.43565 9.20253,25.32641 0,18.31625 -0.22205,33.01635 -0.22205,37.53717 0,3.61889 2.46992,7.91766 9.20253,6.5605 53.87198,-18.0942 92.70521,-69.1993 92.70521,-129.57638 C 271.15539,61.05414 210.32601,0 135.57904,0 Z"
     fill="#24292f"
     id="path1"
     style="stroke-width:2.77519;fill:#736a47;fill-opacity:1" /></svg>
