<?xml version="1.0" encoding="UTF-8" standalone="no"?>
<!-- Created with Inkscape (http://www.inkscape.org/) -->

<svg
   width="1024"
   height="1024"
   viewBox="0 0 270.93332 270.93333"
   version="1.1"
   id="svg1"
   inkscape:version="1.4 (86a8ad7, 2024-10-11)"
   xml:space="preserve"
   sodipodi:docname="ig.svg"
   xmlns:inkscape="http://www.inkscape.org/namespaces/inkscape"
   xmlns:sodipodi="http://sodipodi.sourceforge.net/DTD/sodipodi-0.dtd"
   xmlns:xlink="http://www.w3.org/1999/xlink"
   xmlns="http://www.w3.org/2000/svg"
   xmlns:svg="http://www.w3.org/2000/svg"><sodipodi:namedview
     id="namedview1"
     pagecolor="#292929"
     bordercolor="#eeeeee"
     borderopacity="1"
     inkscape:showpageshadow="false"
     inkscape:pageopacity="0"
     inkscape:pagecheckerboard="false"
     inkscape:deskcolor="#1a1a1a"
     inkscape:document-units="mm"
     showborder="true"
     borderlayer="true"
     labelstyle="default"
     inkscape:clip-to-page="false"
     inkscape:zoom="0.55322266"
     inkscape:cx="403.09267"
     inkscape:cy="610.06178"
     inkscape:window-width="2560"
     inkscape:window-height="1351"
     inkscape:window-x="1341"
     inkscape:window-y="366"
     inkscape:window-maximized="1"
     inkscape:current-layer="svg1" /><defs
     id="defs1"><radialGradient
       id="f"
       cx="158.429"
       cy="578.088"
       r="52.3515"
       xlink:href="#a"
       gradientUnits="userSpaceOnUse"
       gradientTransform="matrix(0 -4.03418 4.28018 0 -2332.2273 942.2356)"
       fx="158.429"
       fy="578.088" /><linearGradient
       id="c"><stop
         offset="0"
         stop-color="#780cff"
         id="stop3" /><stop
         stop-color="#820bff"
         offset="1"
         stop-opacity="0"
         id="stop4" /></linearGradient><linearGradient
       id="a"><stop
         offset="0"
         stop-color="#fc0"
         id="stop7" /><stop
         offset=".1242"
         stop-color="#fc0"
         id="stop8" /><stop
         offset=".5672"
         stop-color="#fe4a05"
         id="stop9" /><stop
         offset=".6942"
         stop-color="#ff0f3f"
         id="stop10" /><stop
         offset="1"
         stop-color="#fe0657"
         stop-opacity="0"
         id="stop11" /></linearGradient><radialGradient
       id="f-1"
       cx="158.429"
       cy="578.088"
       r="52.3515"
       xlink:href="#a"
       gradientUnits="userSpaceOnUse"
       gradientTransform="matrix(0,-4.03418,4.28018,0,-2332.2273,942.2356)"
       fx="158.429"
       fy="578.088" /></defs><path
     d="M 135.47933,0 C 98.688522,0 94.071339,0.16070426 79.621313,0.81784284 65.199655,1.4777356 55.355659,3.7592678 46.742076,7.106929 37.832285,10.564343 30.274231,15.189375 22.744541,22.716311 15.209205,30.240631 10.580592,37.792905 7.10927,46.693332 3.75073,55.303334 1.4646534,65.142786 0.81563952,79.548195 0.16937981,93.987342 0,98.603974 0,135.36752 c 0,36.76368 0.16373382,41.36324 0.81839367,55.80238 0.66333543,14.41106 2.94652013,24.24776 6.29363043,32.85487 3.4629219,8.90332 8.0913979,16.45559 15.6239789,23.97977 7.527074,7.52983 15.08499,12.16629 23.989135,15.6237 8.619091,3.34753 18.466117,5.62906 32.884883,6.28909 14.450026,0.65686 19.064318,0.81771 55.852369,0.81771 36.79371,0 41.39684,-0.16071 55.84673,-0.81785 14.4218,-0.65989 24.27708,-2.94142 32.89618,-6.28908 8.90703,-3.45728 16.4538,-8.09374 23.98073,-15.62357 7.53534,-7.52418 12.16395,-15.07645 15.63528,-23.97688 3.33017,-8.61 5.61624,-18.44946 6.29363,-32.85487 0.64901,-14.43914 0.81839,-19.04173 0.81839,-55.80527 0,-36.763683 -0.16938,-41.377286 -0.81839,-55.816571 -0.67739,-14.411054 -2.96346,-24.247615 -6.29363,-32.854726 -3.47133,-8.903318 -8.09994,-16.45573 -15.63528,-23.979912 C 240.65056,15.186484 233.11509,10.561451 224.1969,7.1067912 215.56073,3.7592678 205.71109,1.4777356 191.28943,0.81784284 176.8394,0.16070426 172.23916,0 135.43706,0 Z m -12.15266,24.394411 c 3.60697,-0.0056 7.63146,0 12.15266,0 36.17003,0 40.45699,0.12972 54.74039,0.778321 13.20818,0.60357 20.37667,2.808813 25.15194,4.661662 6.32186,2.453529 10.82901,5.386554 15.56752,10.124369 4.74139,4.737952 7.67648,9.250203 10.13758,15.567244 1.85423,4.766045 4.06402,11.929296 4.66511,25.127701 0.64915,14.269905 0.7903,18.556591 0.7903,54.682822 0,36.1261 -0.14115,40.41292 -0.7903,54.68283 -0.60398,13.19827 -2.81088,20.36152 -4.66511,25.12756 -2.45531,6.31718 -5.39619,10.81539 -10.13758,15.55031 -4.74126,4.73795 -9.24291,7.67084 -15.56752,10.12437 -4.76963,1.86139 -11.94376,4.06098 -25.15194,4.66455 -14.28051,0.6486 -18.57036,0.78962 -54.74039,0.78962 -36.172778,0 -40.459739,-0.14102 -54.740385,-0.78962 -13.208045,-0.60908 -20.376529,-2.81446 -25.154692,-4.66731 -6.321861,-2.45353 -10.837554,-5.38655 -15.578812,-10.12437 -4.741391,-4.73781 -7.676481,-9.23877 -10.137584,-15.55884 -1.854227,-4.76604 -4.064013,-11.92929 -4.665105,-25.12756 -0.649152,-14.27004 -0.77901,-18.55659 -0.77901,-54.70541 0,-36.148683 0.129858,-40.412923 0.77901,-54.682828 0.603983,-13.198405 2.810878,-20.361519 4.665105,-25.13321 2.455319,-6.317178 5.396193,-10.829429 10.137584,-15.567243 4.741258,-4.737953 9.256951,-7.67084 15.578812,-10.130015 C 60.359524,27.927977 67.5309,25.72838 80.738945,25.121918 93.23587,24.557869 98.078893,24.388765 123.32681,24.360397 Z m 84.46448,22.476563 c -8.97479,0 -16.25633,7.267633 -16.25633,16.238428 0,8.968179 7.28154,16.244213 16.25633,16.244213 8.97465,0 16.2562,-7.276034 16.2562,-16.244213 0,-8.968041 -7.28155,-16.243936 -16.25633,-16.243936 z m -72.31182,18.979627 c -38.419332,0 -69.568417,31.126088 -69.568417,69.516919 0,38.39083 31.149085,69.50273 69.568417,69.50273 38.41934,0 69.55727,-31.1119 69.55727,-69.50273 0,-38.390831 -31.14069,-69.516919 -69.56002,-69.516919 z m 0,24.394411 c 24.93739,0 45.15611,20.200818 45.15611,45.122508 0,24.91894 -20.21872,45.1225 -45.15611,45.1225 -24.94014,0 -45.155967,-20.20356 -45.155967,-45.1225 0,-24.92169 20.215827,-45.122508 45.155967,-45.122508 z"
     inkscape:connector-curvature="0"
     fill="#ffffff"
     id="path15"
     style="display:inline;fill:#d38a43;fill-opacity:1;stroke-width:1.37707" /></svg>
