<?xml version="1.0" encoding="UTF-8" standalone="no"?>
<!-- Created with Inkscape (http://www.inkscape.org/) -->

<svg
   width="1024"
   height="1024"
   viewBox="0 0 270.93332 270.93333"
   version="1.1"
   id="svg1"
   inkscape:version="1.4 (86a8ad7, 2024-10-11)"
   xml:space="preserve"
   sodipodi:docname="steam.svg"
   xmlns:inkscape="http://www.inkscape.org/namespaces/inkscape"
   xmlns:sodipodi="http://sodipodi.sourceforge.net/DTD/sodipodi-0.dtd"
   xmlns="http://www.w3.org/2000/svg"
   xmlns:svg="http://www.w3.org/2000/svg"><sodipodi:namedview
     id="namedview1"
     pagecolor="#292929"
     bordercolor="#eeeeee"
     borderopacity="1"
     inkscape:showpageshadow="false"
     inkscape:pageopacity="0"
     inkscape:pagecheckerboard="false"
     inkscape:deskcolor="#1a1a1a"
     inkscape:document-units="mm"
     showborder="true"
     borderlayer="true"
     labelstyle="default"
     inkscape:clip-to-page="false"
     inkscape:zoom="0.78237498"
     inkscape:cx="403.25932"
     inkscape:cy="612.87747"
     inkscape:window-width="2560"
     inkscape:window-height="1351"
     inkscape:window-x="1341"
     inkscape:window-y="366"
     inkscape:window-maximized="1"
     inkscape:current-layer="svg1" /><defs
     id="defs1"><linearGradient
       id="A"
       x2="50%"
       x1="50%"
       y2="100%"
       y1="0%"><stop
         stop-color="#111d2e"
         offset="0%"
         id="stop1" /><stop
         stop-color="#051839"
         offset="21.2%"
         id="stop2" /><stop
         stop-color="#0a1b48"
         offset="40.7%"
         id="stop3" /><stop
         stop-color="#132e62"
         offset="58.1%"
         id="stop4" /><stop
         stop-color="#144b7e"
         offset="73.8%"
         id="stop5" /><stop
         stop-color="#136497"
         offset="87.3%"
         id="stop6" /><stop
         stop-color="#1387b8"
         offset="100%"
         id="stop7" /></linearGradient></defs><path
     d="m 127.56286,97.676803 0.0134,0.697362 -34.559635,50.206395 c -5.596627,-0.256 -11.210913,0.72827 -16.542719,2.9219 a 35.927907,35.927907 0 0 0 -6.611795,3.53101 L -6.0322811,123.75323 c 0,0 -1.7566772,28.89239 5.56132269,50.42265 L 53.182555,196.31525 c 2.648249,12.0407 10.94609,22.59839 23.136862,27.67419 a 39.19408,39.19408 0 0 0 51.212713,-21.10655 39.238218,39.238218 0 0 0 3.01899,-16.13664 l 49.40309,-35.33206 1.21378,0.0221 c 29.59418,0 53.64911,-24.12553 53.64911,-53.759447 0,-29.63391 -24.0108,-53.671171 -53.64911,-53.732975 -29.58093,0 -53.6491,24.099065 -53.6491,53.732975 z m -8.29785,101.736887 c -6.41758,15.44811 -24.125528,22.71756 -39.516266,16.30439 A 30.190035,30.190035 0 0 1 64.194691,200.87907 l 17.46521,7.23854 A 22.245288,22.245288 0 0 0 110.7509,196.11662 22.289426,22.289426 0 0 0 98.767579,166.98147 l -18.096361,-7.4813 c 6.9649,-2.64825 14.883154,-2.73652 22.289412,0.33986 7.50337,3.10286 13.24125,8.94666 16.31321,16.41915 3.07198,7.47248 3.05432,15.71294 -0.0442,23.15451 m 61.98668,-65.91932 a 35.839632,35.839632 0 0 1 -35.74253,-35.808735 35.839632,35.839632 0 0 1 35.74253,-35.79992 35.839632,35.839632 0 0 1 35.75134,35.79992 35.839632,35.839632 0 0 1 -35.75134,35.808735 M 154.43369,97.628249 a 26.879724,26.879724 0 0 1 26.83559,-26.901794 c 14.80812,0 26.85324,12.04954 26.85324,26.901794 A 26.879724,26.879724 0 0 1 181.26928,124.52122 26.879724,26.879724 0 0 1 154.42927,97.628249 Z"
     id="path8"
     style="fill:#aaa48a;fill-opacity:1;stroke-width:4.41375" /></svg>
