<?xml version="1.0" encoding="UTF-8" standalone="no"?>
<!-- Created with Inkscape (http://www.inkscape.org/) -->

<svg
   width="1024"
   height="1024"
   viewBox="0 0 270.93332 270.93333"
   version="1.1"
   id="svg1"
   inkscape:version="1.4 (86a8ad7, 2024-10-11)"
   xml:space="preserve"
   sodipodi:docname="ttv.svg"
   xmlns:inkscape="http://www.inkscape.org/namespaces/inkscape"
   xmlns:sodipodi="http://sodipodi.sourceforge.net/DTD/sodipodi-0.dtd"
   xmlns="http://www.w3.org/2000/svg"
   xmlns:svg="http://www.w3.org/2000/svg"><sodipodi:namedview
     id="namedview1"
     pagecolor="#292929"
     bordercolor="#eeeeee"
     borderopacity="1"
     inkscape:showpageshadow="false"
     inkscape:pageopacity="0"
     inkscape:pagecheckerboard="false"
     inkscape:deskcolor="#1a1a1a"
     inkscape:document-units="mm"
     showborder="true"
     borderlayer="true"
     labelstyle="default"
     inkscape:clip-to-page="false"
     inkscape:zoom="0.78237498"
     inkscape:cx="532.9925"
     inkscape:cy="638.44066"
     inkscape:window-width="2560"
     inkscape:window-height="1351"
     inkscape:window-x="1341"
     inkscape:window-y="366"
     inkscape:window-maximized="1"
     inkscape:current-layer="svg1" /><defs
     id="defs1" /><path
     id="path3367"
     style="fill:#a9a2ba;fill-opacity:1;fill-rule:evenodd;stroke:none"
     d="M -72.14598 50.691995 L -76.044932 35.093089 L -76.044932 -35.096979 L -58.494909 -35.096979 L -58.494909 -44.848004 L -48.748987 -44.848004 L -38.997051 -35.096979 L -23.40106 -35.096979 L 7.7949307 -3.9049973 L 7.7949307 50.691995 L -72.14598 50.691995 z M -64.344067 42.892998 L -5.7928534e-05 42.892998 L -5.7928534e-05 -3.1592374e-05 L -13.65204 -13.65092 L -35.097005 -13.65092 L -46.796048 -25.347959 L -46.796048 -13.65092 L -64.344067 -13.65092 L -64.344067 42.892998 z M -42.896914 27.297371 L -42.896914 3.8963694 L -35.097916 3.8963694 L -35.097916 27.297371 L -42.896914 27.297371 z M -21.451037 27.297371 L -21.451037 3.8963694 L -13.65204 3.8963694 L -13.65204 27.297371 L -21.451037 27.297371 z "
     transform="matrix(2.8358105,0,0,-2.8358105,232.2387,143.75289)" /></svg>
