<?xml version="1.0" encoding="UTF-8" standalone="no"?>
<!-- Created with Inkscape (http://www.inkscape.org/) -->

<svg
   width="1024"
   height="1024"
   viewBox="0 0 270.93332 270.93333"
   version="1.1"
   id="svg1"
   inkscape:version="1.4 (86a8ad7, 2024-10-11)"
   xml:space="preserve"
   sodipodi:docname="yt.svg"
   xmlns:inkscape="http://www.inkscape.org/namespaces/inkscape"
   xmlns:sodipodi="http://sodipodi.sourceforge.net/DTD/sodipodi-0.dtd"
   xmlns="http://www.w3.org/2000/svg"
   xmlns:svg="http://www.w3.org/2000/svg"><sodipodi:namedview
     id="namedview1"
     pagecolor="#292929"
     bordercolor="#eeeeee"
     borderopacity="1"
     inkscape:showpageshadow="false"
     inkscape:pageopacity="0"
     inkscape:pagecheckerboard="false"
     inkscape:deskcolor="#1a1a1a"
     inkscape:document-units="mm"
     showborder="true"
     borderlayer="true"
     labelstyle="default"
     inkscape:clip-to-page="false"
     inkscape:zoom="0.78237498"
     inkscape:cx="357.24557"
     inkscape:cy="494.00864"
     inkscape:window-width="2560"
     inkscape:window-height="1351"
     inkscape:window-x="1341"
     inkscape:window-y="366"
     inkscape:window-maximized="1"
     inkscape:current-layer="svg1" /><defs
     id="defs1" /><path
     id="path1"
     class="style-scope yt-icon"
     d="m 135.46504,40.635627 c 0,0 -84.726073,1.57e-4 -105.846744,5.665037 C 17.95408,49.423044 8.7874172,58.589608 5.6650393,70.25392 1.5830908e-4,91.374496 1.6666663e-6,135.46668 1.6666663e-6,135.46668 c 0,0 1.566424137e-4,44.09198 5.6650376333337,65.21275 3.1223779,11.66421 12.2890407,20.83141 23.9532567,23.95325 21.120671,5.6652 105.846744,5.66503 105.846744,5.66503 0,0 84.73019,1.7e-4 105.85001,-5.66503 11.66421,-3.12184 20.83141,-12.28904 23.95325,-23.95325 5.66521,-21.12077 5.66503,-65.21275 5.66503,-65.21275 0,0 -0.0226,-44.092184 -5.66503,-65.21276 C 262.14646,58.589608 252.97926,49.423044 241.31505,46.300664 220.19523,40.635784 135.46504,40.635627 135.46504,40.635627 Z m -27.11957,54.200279 70.38841,40.634004 -70.38841,40.63401 z"
     style="stroke-width:9.48308;fill:#cd9d7c;fill-opacity:1" /></svg>
